<?xml version="1.0" encoding="UTF-8"?>
<svg version="1.1" xmlns="http://www.w3.org/2000/svg" width="821" height="342">
<path d="M0 0 C3.93743833 -0.05797565 7.87476719 -0.09358789 11.8125 -0.125 C12.93205078 -0.14175781 14.05160156 -0.15851563 15.20507812 -0.17578125 C16.27822266 -0.18222656 17.35136719 -0.18867187 18.45703125 -0.1953125 C19.9416687 -0.21102295 19.9416687 -0.21102295 21.45629883 -0.22705078 C24 0 24 0 27 2 C29.25892988 2.49530402 31.5328727 2.92341178 33.8125 3.3125 C56.45007474 7.56030173 76.56168856 18.98562572 90 38 C91.53711 40.63385875 92.78365815 43.19712531 94 46 C94.66 46 95.32 46 96 46 C96.18369141 47.25876953 96.18369141 47.25876953 96.37109375 48.54296875 C97.04079995 52.22427301 98.02148675 55.71932524 99.0625 59.3125 C102.69971691 72.50448683 102.69971691 72.50448683 99.92456055 78.21166992 C97.01515569 80.91513188 94.67850225 80.46909991 90.76953125 80.42578125 C89.70565437 80.42084908 89.70565437 80.42084908 88.62028503 80.41581726 C86.35040516 80.40007097 84.08199773 80.35607474 81.8125 80.3125 C80.30404865 80.30100488 78.79558322 80.29122083 77.28710938 80.28320312 C75.8229018 80.26976083 74.35870697 80.2548329 72.89453125 80.23828125 C71.88783134 80.22720085 71.88783134 80.22720085 70.86079407 80.21589661 C57.99958751 79.96208779 57.99958751 79.96208779 55.39257812 77.45288086 C54.9662207 76.46880249 54.9662207 76.46880249 54.53125 75.46484375 C54.1919043 74.74119629 53.85255859 74.01754883 53.50292969 73.27197266 C53.00647949 72.11640869 53.00647949 72.11640869 52.5 70.9375 C48.508387 62.5627688 43.87978022 54.9175501 35 51 C34.01 51.495 34.01 51.495 33 52 C32.67 51.01 32.34 50.02 32 49 C28.98359945 47.74359742 28.98359945 47.74359742 25.4375 46.8125 C24.23996094 46.46832031 23.04242188 46.12414062 21.80859375 45.76953125 C20.88175781 45.51558594 19.95492187 45.26164062 19 45 C18.505 45.99 18.505 45.99 18 47 C18 46.01 18 45.02 18 44 C1.14852114 44.27723324 -14.20384393 44.80141714 -27.1171875 57 C-40.74064611 71.39459778 -45.59598307 90.83951245 -45.25 110.2578125 C-44.34475037 123.80826794 -41.87557335 137.30778883 -33 148 C-32.12410462 149.29105967 -31.24905123 150.58269113 -30.375 151.875 C-23.52060974 160.9570671 -13.6277647 165.27444706 -2.6953125 167.4609375 C-0.45388398 167.76472085 1.73967886 167.91164869 4 168 C4.99773437 168.0515625 5.99546875 168.103125 7.0234375 168.15625 C17.77526907 168.46271551 27.72076209 166.59572265 37 161 C37.90685547 160.46246094 37.90685547 160.46246094 38.83203125 159.9140625 C46.2974017 155.06726426 50.41396895 147.54553894 54.80078125 140.00390625 C56 138 56 138 57 137 C58.32424437 136.84227595 59.6562789 136.74893726 60.98828125 136.68359375 C61.83084473 136.64121582 62.6734082 136.59883789 63.54150391 136.55517578 C67.36766076 136.39269053 71.19366536 136.23641361 75.02099609 136.10400391 C76.98253008 136.03552222 78.94382865 135.95986071 80.90478516 135.87646484 C83.64481308 135.76550386 86.38354189 135.69006185 89.125 135.625 C89.97102783 135.58689209 90.81705566 135.54878418 91.6887207 135.50952148 C94.0703125 135.4765625 94.0703125 135.4765625 98 136 C100.17441091 138.39434179 100.84044433 139.94732174 101.3203125 143.11328125 C100.09301119 156.93269404 92.26225476 169.26055216 84 180 C83.43667969 180.74765625 82.87335938 181.4953125 82.29296875 182.265625 C67.99920435 199.93285691 44.22200002 209.19243893 22.29003906 211.80151367 C-5.86155007 214.24151815 -34.687362 209.87543354 -57.05078125 191.4921875 C-58.7407823 189.97094198 -60.41007325 188.4260008 -62.046875 186.84765625 C-64.06370068 184.83559231 -64.06370068 184.83559231 -67 183 C-68.04265287 181.7211211 -69.0402203 180.40469193 -70 179.0625 C-71.43956433 177.05685698 -72.78255185 175.20929385 -74.5625 173.49609375 C-76.21080347 171.780604 -76.99963304 170.15278969 -78 168 C-79.31355608 165.66744285 -80.64259984 163.34437832 -81.9765625 161.0234375 C-83 159 -83 159 -83 157 C-83.99 157 -84.98 157 -86 157 C-86.0825 155.989375 -86.165 154.97875 -86.25 153.9375 C-86.75184818 149.80634393 -87.80675437 145.9392466 -88.9375 141.9375 C-97.31295694 111.35725538 -94.7569532 76.07702009 -80 47.75 C-77.07374558 42.83668687 -73.66114604 38.38363384 -70 34 C-69.49082031 33.34515625 -68.98164062 32.6903125 -68.45703125 32.015625 C-54.18736974 14.39875894 -31.1341814 4.39786965 -9 2 C-5.97520127 1.87110233 -3.02902349 1.89903255 0 2 C0 1.34 0 0.68 0 0 Z " fill="#132B46" transform="translate(162,104)"/>
<path d="M0 0 C1.13050781 0.52658203 2.26101562 1.05316406 3.42578125 1.59570312 C4.63817546 2.17024675 5.85041123 2.74512479 7.0625 3.3203125 C8.32666825 3.91374105 9.59099319 4.50683591 10.85546875 5.09960938 C19.20823512 9.02924258 27.47735723 13.11490279 35.71118164 17.28759766 C44.05938936 21.4968161 52.53552846 25.40946321 61.02709961 29.31933594 C71.43397998 34.12327364 81.75532469 39.09379464 92.06079102 44.11108398 C97.75978751 46.88462056 103.46148755 49.64778229 109.20703125 52.32421875 C110.10478271 52.7428418 111.00253418 53.16146484 111.92749023 53.59277344 C113.54815835 54.34501819 115.17121786 55.09214188 116.79711914 55.83300781 C121.95328192 58.22687635 121.95328192 58.22687635 123.0625 60.4453125 C123.4375 63.2578125 123.4375 63.2578125 123.0625 66.4453125 C120.34001395 69.84842007 118.35393063 71.6789856 114.0625 72.4453125 C113.7325 73.1053125 113.4025 73.7653125 113.0625 74.4453125 C111.06870011 75.13029896 109.06698877 75.79226639 107.0625 76.4453125 C104.26897769 77.69306723 101.54262983 79.06524687 98.8125 80.4453125 C98.09320313 80.80109375 97.37390625 81.156875 96.6328125 81.5234375 C92.55732937 83.56374674 92.55732937 83.56374674 89.0625 86.4453125 C87.0625 87.11197917 85.0625 87.77864583 83.0625 88.4453125 C77.6568489 90.83521782 77.6568489 90.83521782 73.0625 94.4453125 C72.25039063 93.57132813 72.25039063 93.57132813 71.421875 92.6796875 C44.82676691 67.49359176 6.29358062 65.82333517 -27.9375 66.4453125 C-28.2675 67.1053125 -28.5975 67.7653125 -28.9375 68.4453125 C-32.2375 68.4453125 -35.5375 68.4453125 -38.9375 68.4453125 C-39.2675 69.1053125 -39.5975 69.7653125 -39.9375 70.4453125 C-41.65234375 70.9375 -41.65234375 70.9375 -43.875 71.3203125 C-59.05464556 74.45186143 -71.91086692 83.07217466 -83.9375 92.4453125 C-86.9375 94.4453125 -86.9375 94.4453125 -89.5703125 94.32421875 C-93.9364285 93.1845713 -97.77222139 91.36528819 -101.8125 89.3828125 C-102.59625 89.00576172 -103.38 88.62871094 -104.1875 88.24023438 C-106.10745053 87.31538016 -108.022939 86.38127272 -109.9375 85.4453125 C-112.22710988 87.73492238 -111.21767612 93.06204344 -111.25 96.1328125 C-111.27900391 97.03193359 -111.30800781 97.93105469 -111.33789062 98.85742188 C-111.39350245 104.68810753 -110.63673041 107.71891715 -106.9375 112.4453125 C-106.06583727 118.43799379 -107.7581861 121.57698808 -110.9375 126.4453125 C-111.5975 126.4453125 -112.2575 126.4453125 -112.9375 126.4453125 C-112.9876123 127.07808105 -113.03772461 127.71084961 -113.08935547 128.36279297 C-113.94984275 139.15107915 -114.81569608 149.9369417 -116 160.6953125 C-116.07911621 161.4260498 -116.15823242 162.15678711 -116.23974609 162.90966797 C-116.60819633 166.15465632 -117.02289704 169.30490588 -117.9375 172.4453125 C-123.45822272 173.922689 -126.89890906 172.80110663 -132 170.7578125 C-132.69416016 170.50064453 -133.38832031 170.24347656 -134.10351562 169.97851562 C-138.30749179 168.35361696 -141.53715031 166.48773064 -144.9375 163.4453125 C-143.65427847 157.28584917 -141.57946886 152.40776292 -138.5 146.9453125 C-132.58175965 136.68411369 -132.58175965 136.68411369 -130.625 125.1953125 C-130.62886719 124.38578125 -130.63273437 123.57625 -130.63671875 122.7421875 C-130.96056963 120.26914439 -131.70015838 118.59463898 -132.9375 116.4453125 C-133.5975 116.4453125 -134.2575 116.4453125 -134.9375 116.4453125 C-134.6075 115.4553125 -134.2775 114.4653125 -133.9375 113.4453125 C-133.2775 113.4453125 -132.6175 113.4453125 -131.9375 113.4453125 C-131.64875 112.5171875 -131.36 111.5890625 -131.0625 110.6328125 C-129.9375 107.4453125 -129.9375 107.4453125 -127.9375 104.4453125 C-126.98911838 98.71783133 -126.6401567 92.99490022 -126.5 87.1953125 C-126.43135742 86.01195313 -126.43135742 86.01195313 -126.36132812 84.8046875 C-126.31729608 82.53799423 -126.3621618 80.63946651 -126.9375 78.4453125 C-129.58225935 75.92172131 -129.58225935 75.92172131 -132.9375 74.4453125 C-134.16726562 73.78015625 -134.16726562 73.78015625 -135.421875 73.1015625 C-136.94056176 72.32650857 -138.4614299 71.55571514 -139.984375 70.7890625 C-142.27305385 69.21445145 -142.99995733 68.03851563 -143.9375 65.4453125 C-143.9375 62.4453125 -143.9375 62.4453125 -142.9375 59.4453125 C-137.57192539 55.18361665 -131.20523531 52.6892712 -125 49.8828125 C-113.05187866 44.42534857 -101.23175219 38.72685925 -89.4375 32.9453125 C-74.67624813 25.71522771 -59.84199064 18.68710658 -44.90869141 11.81933594 C-40.38242467 9.72617002 -35.87834296 7.5872288 -31.375 5.4453125 C-29.88021163 4.73957635 -28.38542016 4.03384676 -26.890625 3.328125 C-24.42682682 2.16211545 -21.98553001 0.9693275 -19.546875 -0.25 C-18.10054687 -0.95769531 -18.10054687 -0.95769531 -16.625 -1.6796875 C-15.45517578 -2.27136719 -15.45517578 -2.27136719 -14.26171875 -2.875 C-9.20698706 -4.35319044 -4.56733727 -2.14038827 0 0 Z " fill="#132B46" transform="translate(176.9375,25.5546875)"/>
<path d="M0 0 C0.99 0.495 0.99 0.495 2 1 C3.18477804 2.15092724 4.36469776 3.30740946 5.515625 4.4921875 C6.54659794 5.53943896 7.60070484 6.56421343 8.671875 7.5703125 C22.4541239 20.68174398 30.61924246 39.86475879 31.203125 58.78515625 C31.55151422 82.28922412 26.03011003 103.00859217 9.57421875 120.58203125 C-6.46583822 135.6484884 -26.2286211 140.9475218 -47.80859375 140.34375 C-67.05618838 139.35433812 -84.15078218 130.66340703 -97.25 116.625 C-101.38766304 111.78233961 -106.0240305 106.06772687 -107.53515625 99.76953125 C-107.68855469 99.18558594 -107.84195312 98.60164063 -108 98 C-108.66 97.67 -109.32 97.34 -110 97 C-117.89306174 79.33310791 -118.53404008 54.07000051 -112 36 C-107.98098847 26.34547415 -103.08932525 17.75214834 -96 10 C-95.44828125 9.36835938 -94.8965625 8.73671875 -94.328125 8.0859375 C-70.19316683 -18.002803 -28.61807018 -17.41969489 0 0 Z M-56 28 C-57.299375 28.5878125 -57.299375 28.5878125 -58.625 29.1875 C-66.3374211 35.07329505 -69.96378525 44.04348078 -71.58984375 53.390625 C-73.49688266 70.17256743 -71.05937182 83.40768275 -60.8125 96.875 C-54.65306443 101.52879576 -47.27198188 103.72848076 -39.56640625 103.39453125 C-34.83692523 102.66747252 -30.21323429 101.28631044 -26 99 C-25.505 97.515 -25.505 97.515 -25 96 C-24.38253906 95.85433594 -23.76507813 95.70867187 -23.12890625 95.55859375 C-19.47861003 94.6008096 -18.29939266 91.64463541 -16.390625 88.57421875 C-9.88763316 76.53637711 -9.98569962 62.43095667 -12.984375 49.38671875 C-14.37273595 44.75706896 -16.23340757 40.94634056 -19 37 C-19.721875 35.9275 -20.44375 34.855 -21.1875 33.75 C-27.24242552 27.82962838 -34.89166481 24.93473496 -43.3125 24.75 C-48.03964024 24.80505821 -51.75425604 25.99870219 -56 28 Z " fill="#142B46" transform="translate(387,176)"/>
<path d="M0 0 C11.55537119 8.76929355 19.23801434 17.91959189 21.9765625 32.5 C21.76171875 35.265625 21.76171875 35.265625 20.9765625 37.5 C17.87946322 39.56473286 17.23207662 39.74976031 13.73046875 39.73046875 C12.48209229 39.72865601 12.48209229 39.72865601 11.20849609 39.72680664 C10.32758301 39.71383545 9.44666992 39.70086426 8.5390625 39.6875 C7.64268066 39.68032959 6.74629883 39.67315918 5.82275391 39.66577148 C-12.12862847 39.44740452 -12.12862847 39.44740452 -16.0234375 37.5 C-16.65221195 36.25102529 -17.22867457 34.97533869 -17.7734375 33.6875 C-19.74742261 29.56209291 -21.93268117 27.67593422 -26.0234375 25.5 C-29.91914637 24.20143038 -33.64874142 24.23675864 -37.7109375 24.1875 C-38.48888672 24.15849609 -39.26683594 24.12949219 -40.06835938 24.09960938 C-45.78597247 24.03761691 -50.31554953 25.13336636 -55.0234375 28.5 C-57.34879813 31.98804095 -57.35801648 33.40140754 -57.0234375 37.5 C-55.39406141 41.74433444 -53.23128158 42.77945237 -49.25299072 44.61380005 C-45.78266842 45.9931793 -42.28083304 46.87657963 -38.640625 47.68359375 C-37.86389435 47.86584 -37.0871637 48.04808624 -36.28689575 48.2358551 C-33.82617036 48.81259195 -31.36277872 49.37643097 -28.8984375 49.9375 C1.39822594 56.85960535 1.39822594 56.85960535 11.98828125 65.046875 C14.01269443 66.68119193 14.01269443 66.68119193 16.9765625 67.5 C18.4140625 70.0625 18.4140625 70.0625 19.9765625 73.5 C20.66376119 74.791827 21.35127437 76.08348673 22.0390625 77.375 C27.17946449 87.79366918 27.10025342 98.47767173 24.01171875 109.58203125 C19.65444436 121.86461226 10.61898683 130.92364208 -1.0234375 136.5 C-22.73453277 145.4778985 -49.58743345 146.91060109 -71.6484375 138.1875 C-84.34423462 132.21923932 -93.59679642 123.99385785 -99.24609375 110.9453125 C-100.0234375 108.5 -100.0234375 108.5 -100.0234375 104.5 C-101.0134375 104.5 -102.0034375 104.5 -103.0234375 104.5 C-102.3634375 102.85 -101.7034375 101.2 -101.0234375 99.5 C-101.6834375 99.17 -102.3434375 98.84 -103.0234375 98.5 C-100.26078006 95.11213768 -98.85177832 93.62130893 -94.44921875 92.9765625 C-93.0773927 92.99752817 -91.7057992 93.0486771 -90.3359375 93.125 C-89.23511841 93.16693481 -89.23511841 93.16693481 -88.11206055 93.2097168 C-86.55350511 93.27122787 -84.99528083 93.34168567 -83.4375 93.42041016 C-80.98581319 93.50124045 -78.56821243 93.44279627 -76.1171875 93.35546875 C-71.53467333 93.26787822 -67.4941258 93.39156488 -63.0234375 94.5 C-60.54690416 97.1509371 -59.47388588 99.45439159 -58.17578125 102.82421875 C-56.37895558 106.99650887 -54.13762037 107.82385142 -50.0234375 109.5 C-45.61969981 110.79833954 -41.33295284 110.72189821 -36.7734375 110.75 C-35.95230469 110.770625 -35.13117188 110.79125 -34.28515625 110.8125 C-28.15609347 110.85135301 -22.1712719 110.2545848 -17.35058594 106.03613281 C-15.46427102 103.85278228 -15.21962525 102.37742031 -15.0234375 99.5 C-15.29010548 95.85745814 -15.29010548 95.85745814 -17.0234375 92.5 C-24.7467388 87.09368909 -34.93779082 85.88767488 -44.00634766 83.81982422 C-82.02427676 75.12785236 -82.02427676 75.12785236 -92.0234375 60.5 C-97.78342164 49.80814445 -98.78794259 37.5459796 -95.8984375 25.75 C-91.68942855 12.59439994 -84.55658762 4.67036751 -72.7421875 -2.1484375 C-52.04547665 -12.43731962 -19.95470018 -12.7201276 0 0 Z " fill="#142B46" transform="translate(747.0234375,172.5)"/>
<path d="M0 0 C1.07030457 0.00349709 1.07030457 0.00349709 2.16223145 0.00706482 C3.66507997 0.01677248 5.16789354 0.03849138 6.67041016 0.0715332 C8.9618186 0.12094428 11.25107548 0.13301713 13.54296875 0.13867188 C15.00783517 0.15276021 16.47268309 0.16896547 17.9375 0.1875 C18.61784302 0.1928627 19.29818604 0.1982254 19.99914551 0.20375061 C23.88842908 0.30027737 27.0073463 0.73537773 30.46875 2.55859375 C31.9856336 5.59236094 31.61309317 8.73983035 31.60919189 12.06797791 C31.61216302 12.85161211 31.61513414 13.63524632 31.6181953 14.44262701 C31.62690473 17.08277437 31.62839242 19.7228765 31.62988281 22.36303711 C31.63450933 24.25006711 31.63953377 26.13709618 31.64492798 28.02412415 C31.65806843 33.16040662 31.66449993 38.29667601 31.66893864 43.43297267 C31.67186621 46.63880958 31.67597037 49.84464288 31.68044281 53.05047798 C31.69412096 63.07192148 31.70378653 73.09335678 31.7076447 83.11480898 C31.7121289 94.6999842 31.72969228 106.28504163 31.7586453 117.87018102 C31.78022626 126.81457035 31.79034703 135.75892645 31.79168582 144.70334154 C31.79273626 150.05057933 31.79869485 155.39770644 31.81650543 160.74491692 C31.83292464 165.77226386 31.83517171 170.7994162 31.82636642 175.82678032 C31.82559278 177.6751304 31.82998149 179.52349069 31.83982468 181.37181473 C31.85244632 183.8888536 31.84672133 186.40519299 31.83624268 188.92222595 C31.84429908 189.65918526 31.85235548 190.39614457 31.86065602 191.15543598 C31.83224278 194.05956983 31.80283361 196.06924112 30.13798141 198.5078516 C27.41467674 200.22210822 24.81869098 200.02194425 21.640625 200.10546875 C20.97339417 200.12579163 20.30616333 200.1461145 19.61871338 200.16705322 C18.2067615 200.20722988 16.79459554 200.24040682 15.38232422 200.26708984 C13.23983897 200.3081892 11.0988595 200.37089166 8.95703125 200.4375 C-4.25090155 200.78721341 -4.25090155 200.78721341 -9.53125 199.55859375 C-12.17578308 196.7731642 -12.91153271 194.81416745 -12.97949219 191.01367188 C-13.00244354 190.08815018 -13.0253949 189.16262848 -13.04904175 188.20906067 C-13.05863922 187.17971909 -13.06823669 186.1503775 -13.078125 185.08984375 C-13.09908234 183.96684372 -13.12003967 182.84384369 -13.14163208 181.68681335 C-13.19488747 178.49283544 -13.2329475 175.29913493 -13.26192474 172.10485458 C-13.28128847 170.05452064 -13.30515417 168.0042826 -13.33013916 165.95401001 C-13.47340077 153.82243953 -13.51304964 141.69092287 -13.53125 129.55859375 C-13.53304764 128.3793206 -13.53484528 127.20004745 -13.53669739 125.98503876 C-13.5611308 107.37392326 -13.51938759 88.76368749 -13.43199682 70.15279067 C-13.40964193 65.16077409 -13.39942629 60.16881863 -13.3939209 55.17675781 C-13.38593678 48.35355267 -13.35057797 41.53092695 -13.29751205 34.7079258 C-13.28155839 32.15240141 -13.27410203 29.5968088 -13.27545547 27.04123497 C-13.27565564 23.51411034 -13.24501184 19.98855457 -13.20654297 16.46166992 C-13.21360134 15.42371529 -13.22065971 14.38576065 -13.22793198 13.31635284 C-13.14527479 8.60121903 -13.07389203 6.29321664 -10.20889282 2.41461182 C-6.78722665 0.04287121 -4.02204163 -0.11547086 0 0 Z " fill="#152C46" transform="translate(522.53125,112.44140625)"/>
<path d="M0 0 C2.64647534 1.32323767 3.51136167 2.4218287 5 5 C5.28654265 7.66282528 5.40097899 10.08892114 5.3742218 12.74989319 C5.37819621 13.53523624 5.38217061 14.3205793 5.38626546 15.12972063 C5.39589745 17.76382875 5.38406508 20.397401 5.37231445 23.03149414 C5.3747421 24.9188202 5.37846116 26.80614497 5.38337708 28.69346619 C5.39279273 33.82143489 5.38335527 38.94921296 5.37004495 44.0771668 C5.35874162 49.43828061 5.36283705 54.79938489 5.36479187 60.1605072 C5.36567512 69.16310751 5.35458726 78.16563257 5.33618164 87.16821289 C5.31500714 97.58493444 5.31150532 108.00154576 5.3177436 118.41828448 C5.3234327 128.42959684 5.31779737 138.44087029 5.30657005 148.45217705 C5.3019187 152.71727656 5.30105252 156.98235232 5.3031559 161.24745369 C5.30503569 166.26660634 5.29695875 171.28564636 5.2810955 176.30477333 C5.27684308 178.14988997 5.27600851 179.99501803 5.27878571 181.84013748 C5.28199437 184.35257989 5.27295916 186.86468295 5.26069641 189.37709045 C5.2663654 190.48048306 5.2663654 190.48048306 5.27214891 191.60616642 C5.24015283 195.29458098 5.10380098 196.84429854 3 200 C1.06762695 200.50512695 1.06762695 200.50512695 -1.32421875 200.67578125 C-2.22060059 200.73975098 -3.11698242 200.8037207 -4.04052734 200.86962891 C-9.29978857 201.1013106 -14.54842641 201.18437592 -19.8125 201.1875 C-20.91787109 201.19974609 -22.02324219 201.21199219 -23.16210938 201.22460938 C-24.7621582 201.22750977 -24.7621582 201.22750977 -26.39453125 201.23046875 C-27.83082886 201.23663208 -27.83082886 201.23663208 -29.29614258 201.24291992 C-33.35305433 200.87843891 -36.11198969 199.88801031 -39 197 C-39.19746242 194.46093394 -39.26929911 192.03085458 -39.25396729 189.49061584 C-39.25864726 188.31516454 -39.25864726 188.31516454 -39.26342177 187.11596674 C-39.27143391 184.47575475 -39.26506568 181.83577056 -39.25878906 179.19555664 C-39.26149752 177.30852625 -39.26505763 175.42149692 -39.26940918 173.5344696 C-39.27855334 168.39816057 -39.27498043 163.26193158 -39.26865101 158.12562108 C-39.26360074 152.75915508 -39.26827981 147.39269611 -39.27142334 142.02622986 C-39.27506615 133.01169601 -39.27025598 123.9971949 -39.26074219 114.98266602 C-39.24986034 104.55122156 -39.25338 94.11985529 -39.264395 83.68841273 C-39.27346286 74.74401906 -39.27475551 65.79964898 -39.26951766 56.85525221 C-39.26639478 51.50804737 -39.26599727 46.16087932 -39.27259064 40.81367683 C-39.27835607 35.7863517 -39.27438192 30.75912762 -39.26280212 25.73181343 C-39.26015109 23.88347034 -39.26092814 22.03511878 -39.26532745 20.18677902 C-39.270767 17.66985935 -39.26396822 15.15326647 -39.25396729 12.6363678 C-39.25842873 11.89940849 -39.26289017 11.16244918 -39.26748681 10.40315777 C-39.23889527 6.71072224 -39.10601402 5.15902103 -37 2 C-29.93896807 0.75519802 -22.84086403 0.84868474 -15.6875 0.875 C-14.61693359 0.87113281 -13.54636719 0.86726563 -12.44335938 0.86328125 C-10.89938477 0.86521484 -10.89938477 0.86521484 -9.32421875 0.8671875 C-7.9333606 0.86887939 -7.9333606 0.86887939 -6.5144043 0.87060547 C-4.1964221 0.98989186 -2.21931877 1.34548133 0 2 C0 1.34 0 0.68 0 0 Z " fill="#122B46" transform="translate(474,112)"/>
<path d="M0 0 C1.12857422 -0.00128906 2.25714844 -0.00257813 3.41992188 -0.00390625 C5.18239258 0.00189453 5.18239258 0.00189453 6.98046875 0.0078125 C8.14384766 0.00394531 9.30722656 0.00007812 10.50585938 -0.00390625 C13.72911919 -0.0002372 16.94594787 0.04609255 20.16796875 0.1328125 C20.91997559 0.15118164 21.67198242 0.16955078 22.44677734 0.18847656 C24.3046875 0.328125 24.3046875 0.328125 27.16796875 1.1328125 C29.85931649 4.70888693 30.5437526 7.31984428 30.54891968 11.74963379 C30.56160889 13.42772881 30.56160889 13.42772881 30.57455444 15.13972473 C30.56848175 16.35754135 30.56240906 17.57535797 30.55615234 18.83007812 C30.5614093 20.12000168 30.56666626 21.40992523 30.57208252 22.73893738 C30.58573889 26.26994246 30.58046456 29.80068406 30.57094526 33.33169365 C30.5633399 37.03025894 30.57039671 40.72880197 30.57510376 44.42736816 C30.58055877 50.63798057 30.57337643 56.84848589 30.55908203 63.05908203 C30.54275594 70.23518853 30.54804463 77.41103931 30.56456125 84.58713961 C30.57818342 90.75289486 30.58009222 96.91857322 30.57224524 103.08433867 C30.56757272 106.764912 30.56693222 110.44536521 30.57685471 114.12593079 C30.58714467 118.22928974 30.5728751 122.33220915 30.55615234 126.43554688 C30.56526138 128.2622718 30.56526138 128.2622718 30.57455444 130.12590027 C30.56609497 131.24463028 30.5576355 132.36336029 30.54891968 133.51599121 C30.5477886 134.48567589 30.54665752 135.45536057 30.54549217 136.45442963 C30.08980046 139.68738633 29.16479769 141.55908011 27.16796875 144.1328125 C23.96937596 144.83758718 21.41314484 145.07618527 18.16796875 145.1328125 C16.94980469 145.15988281 15.73164062 145.18695313 14.4765625 145.21484375 C-8.87419278 145.55111286 -8.87419278 145.55111286 -12.46868992 142.9471817 C-14.35808366 140.43272862 -14.21213455 138.72062499 -14.2197113 135.59118652 C-14.22961594 134.43865891 -14.23952057 133.28613129 -14.24972534 132.09867859 C-14.24522369 130.83312637 -14.24072205 129.56757416 -14.23608398 128.26367188 C-14.24178575 126.91835461 -14.24874926 125.57304219 -14.25688171 124.22773743 C-14.27484872 120.57280197 -14.27363833 116.91810611 -14.26793933 113.26313972 C-14.26485294 110.21375654 -14.2709337 107.16441975 -14.27697808 104.11504316 C-14.29103296 96.92284773 -14.28945371 89.73077106 -14.27807617 82.53857422 C-14.26659014 75.11362047 -14.28067631 67.68902771 -14.30747265 60.26412153 C-14.32960702 53.89291571 -14.33627228 47.52182339 -14.33039623 41.15058184 C-14.32702044 37.34368274 -14.32948278 33.53701515 -14.34664726 29.73014832 C-14.36207889 26.15133069 -14.35820385 22.5730493 -14.33934212 18.99425316 C-14.33388042 17.0518092 -14.34819852 15.10934137 -14.36303711 13.16694641 C-14.35320297 12.01441879 -14.34336884 10.86189117 -14.33323669 9.67443848 C-14.33302741 8.6708152 -14.33281813 7.66719193 -14.3326025 6.63315582 C-13.83203125 4.1328125 -13.83203125 4.1328125 -11.91854954 2.32891083 C-7.97269858 0.06694852 -4.50022157 0.00495814 0 0 Z " fill="#132B46" transform="translate(597.83203125,167.8671875)"/>
<path d="M0 0 C6.02973717 3.47077554 9.30954778 8.05828609 12 14.375 C13.1598512 21.84959661 12.42192798 27.99456778 8.0078125 34.25 C2.70424932 40.67161163 -3.21096118 43.52281013 -11.3125 44.4375 C-18.50932819 44.08402121 -24.59673906 41.38633064 -29.4375 36.0625 C-34.0789941 30.45030881 -34.94838502 25.28507552 -34.81640625 18.140625 C-34.0493786 11.78299377 -31.23942697 6.26699728 -26.4375 2 C-18.44783526 -3.32644316 -8.81398873 -3.96629493 0 0 Z " fill="#142B46" transform="translate(617.4375,114)"/>
<path d="M0 0 C0.99 0.33 1.98 0.66 3 1 C3.33 64.03 3.66 127.06 4 192 C23.8336682 193.55615607 23.8336682 193.55615607 43 191 C43 127.97 43 64.94 43 0 C43.33 0 43.66 0 44 0 C44.04667461 24.98186981 44.08196654 49.96373311 44.10362434 74.9456377 C44.11394672 86.54458382 44.12802538 98.14350289 44.15087891 109.74243164 C44.1707834 119.84942365 44.18370944 129.95639606 44.18817699 140.06340712 C44.19078936 145.41736029 44.19694946 150.7712574 44.21146011 156.12519264 C44.22499759 161.16068266 44.22923043 166.19609333 44.22621536 171.23159981 C44.22676725 173.08317241 44.23076745 174.93474757 44.23841095 176.78630447 C44.24831225 179.30769294 44.2459866 181.82877897 44.24050903 184.35017395 C44.24633472 185.0884975 44.2521604 185.82682105 44.25816262 186.58751804 C44.23634104 190.28528774 44.10909672 191.83635492 42 195 C40.06762695 195.50512695 40.06762695 195.50512695 37.67578125 195.67578125 C36.77939941 195.73975098 35.88301758 195.8037207 34.95947266 195.86962891 C29.70021143 196.1013106 24.45157359 196.18437592 19.1875 196.1875 C18.08212891 196.19974609 16.97675781 196.21199219 15.83789062 196.22460938 C14.2378418 196.22750977 14.2378418 196.22750977 12.60546875 196.23046875 C11.16917114 196.23663208 11.16917114 196.23663208 9.70385742 196.24291992 C5.64694567 195.87843891 2.88801031 194.88801031 0 192 C-0.19310728 189.45399077 -0.26052538 187.01722757 -0.24050903 184.47042847 C-0.24221788 183.68467756 -0.24392673 182.89892666 -0.24568737 182.08936512 C-0.24899587 179.44213529 -0.23795633 176.79515591 -0.22705078 174.14794922 C-0.22648696 172.25605271 -0.22680266 170.36415577 -0.22793579 168.47225952 C-0.22851144 163.32374378 -0.21672284 158.17532055 -0.20278788 153.02682638 C-0.19031583 147.65095579 -0.18911281 142.27508326 -0.18673706 136.89920044 C-0.18051189 126.71361431 -0.16408709 116.52807094 -0.14403808 106.34250367 C-0.12171127 94.74897163 -0.11069376 83.15543758 -0.10064721 71.56188941 C-0.07972174 47.70790254 -0.04452568 23.85395366 0 0 Z " fill="#303F51" transform="translate(435,117)"/>
<path d="M0 0 C2.14061782 3.21092673 2.26159681 4.11492007 2.31884766 7.81811523 C2.34863708 9.29695946 2.34863708 9.29695946 2.37902832 10.80567932 C2.3905896 11.87914108 2.40215088 12.95260284 2.4140625 14.05859375 C2.43351929 15.17914658 2.45297607 16.2996994 2.47302246 17.45420837 C2.53365472 21.11522764 2.57982449 24.77625989 2.625 28.4375 C2.66212371 30.940274 2.69972277 33.443041 2.73779297 35.94580078 C2.94791522 50.42135814 3.09554351 64.89789902 3.125 79.375 C3.12767883 80.13457001 3.13035767 80.89414001 3.13311768 81.67672729 C3.13881059 83.77151666 3.13736501 85.86614847 3.1328125 87.9609375 C3.13168457 89.11384277 3.13055664 90.26674805 3.12939453 91.45458984 C3 94 3 94 2 95 C1.84111908 97.28988781 1.74861927 99.58443441 1.68359375 101.87890625 C1.66281265 102.5655687 1.64203156 103.25223114 1.62062073 103.95970154 C1.55505857 106.16052935 1.49620985 108.36147975 1.4375 110.5625 C1.39432108 112.05144514 1.350707 113.54037773 1.30664062 115.02929688 C1.1993707 118.68606553 1.09812228 122.34297318 1 126 C0.67 126 0.34 126 0 126 C0 84.42 0 42.84 0 0 Z " fill="#08182A" transform="translate(625,180)"/>
<path d="M0 0 C3.37173174 3.37173174 2.30330884 8.04481517 2.32226562 12.59570312 C2.31900269 13.63416382 2.31900269 13.63416382 2.31567383 14.69360352 C2.31252724 16.79431675 2.33591939 18.893603 2.36132812 20.99414062 C2.36360261 22.33593573 2.36430392 23.67773461 2.36328125 25.01953125 C2.36626221 26.23745361 2.36924316 27.45537598 2.37231445 28.71020508 C1.9728777 32.23965438 1.0482087 34.13873605 -1 37 C-1.99 36.505 -1.99 36.505 -3 36 C-5.62380313 35.84339117 -8.22524852 35.7417092 -10.8515625 35.68359375 C-12.01261002 35.6524221 -12.01261002 35.6524221 -13.19711304 35.62062073 C-15.67298392 35.55516552 -18.14896202 35.49625913 -20.625 35.4375 C-22.30209448 35.39431093 -23.97917807 35.35069652 -25.65625 35.30664062 C-29.77072308 35.19948829 -33.88530414 35.09820955 -38 35 C-38 34.67 -38 34.34 -38 34 C-20.675 33.505 -20.675 33.505 -3 33 C-2.67 24.09 -2.34 15.18 -2 6 C-1.67 6 -1.34 6 -1 6 C-0.67 4.02 -0.34 2.04 0 0 Z " fill="#193450" transform="translate(626,275)"/>
<path d="M0 0 C2.20914 3.31371 2.22481553 4.3446021 2.125 8.1875 C2.10695313 9.08855469 2.08890625 9.98960937 2.0703125 10.91796875 C2.04710937 11.60503906 2.02390625 12.29210937 2 13 C-0.29430929 14.14715465 -1.5987907 14.12898338 -4.1484375 14.1328125 C-5.40188965 14.13571289 -5.40188965 14.13571289 -6.68066406 14.13867188 C-7.56979492 14.13416016 -8.45892578 14.12964844 -9.375 14.125 C-10.27444336 14.12306641 -11.17388672 14.12113281 -12.10058594 14.11914062 C-18.76979008 14.07603625 -25.36988036 13.75464776 -32 13 C-32.33 11.68 -32.66 10.36 -33 9 C-32.01 9.495 -32.01 9.495 -31 10 C-28.59439727 10.15608023 -26.21297228 10.25804458 -23.8046875 10.31640625 C-23.09724396 10.33718735 -22.38980042 10.35796844 -21.66091919 10.37937927 C-19.39904575 10.44481078 -17.13705538 10.50372974 -14.875 10.5625 C-13.34243578 10.60569133 -11.80988343 10.64930582 -10.27734375 10.69335938 C-6.51834927 10.80048555 -2.75923708 10.9017709 1 11 C0.505 5.555 0.505 5.555 0 0 Z " fill="#1B2433" transform="translate(765,198)"/>
<path d="M0 0 C0.74306396 0.00193359 1.48612793 0.00386719 2.25170898 0.00585938 C10.68365575 0.06925085 19.08805938 0.57404249 27.5 1.125 C27.17 2.115 26.84 3.105 26.5 4.125 C14.95 3.795 3.4 3.465 -8.5 3.125 C-8.5 5.435 -8.5 7.745 -8.5 10.125 C-8.83 10.125 -9.16 10.125 -9.5 10.125 C-9.5 7.155 -9.5 4.185 -9.5 1.125 C-6.46548878 -0.39225561 -3.32658005 -0.02075638 0 0 Z " fill="#172233" transform="translate(656.5,265.875)"/>
<path d="M0 0 C13.53 0 27.06 0 41 0 C32.21353856 6.58984608 17.39133033 4.53036616 6.8125 3.6875 C3 3 3 3 0 0 Z " fill="#242F3D" transform="translate(689,312)"/>
<path d="M0 0 C0.66 0 1.32 0 2 0 C1.67 1.32 1.34 2.64 1 4 C-6.64111047 4.94411694 -14.181009 5.15228366 -21.875 5.125 C-22.98875 5.12886719 -24.1025 5.13273437 -25.25 5.13671875 C-26.85488281 5.13478516 -26.85488281 5.13478516 -28.4921875 5.1328125 C-29.45495605 5.13168457 -30.41772461 5.13055664 -31.40966797 5.12939453 C-33.75992956 5.01199221 -35.75195336 4.66758566 -38 4 C-38 3.34 -38 2.68 -38 2 C-36.88439697 1.97494385 -35.76879395 1.9498877 -34.61938477 1.92407227 C-30.4950741 1.83016579 -26.3709385 1.72990486 -22.24682617 1.62768555 C-20.4591073 1.584273 -18.67134526 1.54260271 -16.88354492 1.50268555 C-14.31936609 1.4451354 -11.75540588 1.38139797 -9.19140625 1.31640625 C-8.3872377 1.29969376 -7.58306915 1.28298126 -6.75453186 1.26576233 C-3.07330002 1.50779304 -3.07330002 1.50779304 0 0 Z " fill="#141E2F" transform="translate(476,308)"/>
<path d="M0 0 C7.92 0 15.84 0 24 0 C24 0.33 24 0.66 24 1 C22.35 1.33 20.7 1.66 19 2 C21.475 2.495 21.475 2.495 24 3 C24 3.33 24 3.66 24 4 C5.19 4.495 5.19 4.495 -14 5 C-14 4.67 -14 4.34 -14 4 C-9.23692563 3.04738513 -4.8333472 2.91666643 0 3 C0 2.01 0 1.02 0 0 Z " fill="#1C2A3C" transform="translate(162,104)"/>
<path d="M0 0 C0.66 0.33 1.32 0.66 2 1 C2 1.99 2 2.98 2 4 C-2.81316491 8.77202675 -9.66134746 11.33803433 -15.8125 13.9375 C-16.55363037 14.2562207 -17.29476074 14.57494141 -18.05834961 14.90332031 C-21.82850287 16.43691294 -24.11529227 17.27015579 -28 16 C-27.34 16 -26.68 16 -26 16 C-26 15.34 -26 14.68 -26 14 C-25.37351563 13.80664062 -24.74703125 13.61328125 -24.1015625 13.4140625 C-23.28429687 13.15367187 -22.46703125 12.89328125 -21.625 12.625 C-20.81289062 12.36976563 -20.00078125 12.11453125 -19.1640625 11.8515625 C-16.83540815 11.10145717 -16.83540815 11.10145717 -15 9 C-13.9171875 8.87625 -13.9171875 8.87625 -12.8125 8.75 C-9.2229359 7.79278291 -7.34435296 5.95509424 -4.6484375 3.47265625 C-3 2 -3 2 0 0 Z " fill="#1F2B3A" transform="translate(228,295)"/>
<path d="M0 0 C0.66 0.33 1.32 0.66 2 1 C2.02888514 4.14581423 2.04675923 7.29159469 2.0625 10.4375 C2.07087891 11.33533203 2.07925781 12.23316406 2.08789062 13.15820312 C2.09111328 14.01220703 2.09433594 14.86621094 2.09765625 15.74609375 C2.10289307 16.53685303 2.10812988 17.3276123 2.11352539 18.14233398 C2 20 2 20 1 21 C0.84111908 23.28988781 0.74861927 25.58443441 0.68359375 27.87890625 C0.66281265 28.5655687 0.64203156 29.25223114 0.62062073 29.95970154 C0.55505857 32.16052935 0.49620985 34.36147975 0.4375 36.5625 C0.39432108 38.05144514 0.350707 39.54037773 0.30664062 41.02929688 C0.1993707 44.68606553 0.09812228 48.34297318 0 52 C-0.33 52 -0.66 52 -1 52 C-1.02529271 44.91586059 -1.04284261 37.83173277 -1.05493164 30.74755859 C-1.05996974 28.33609583 -1.06680034 25.92463614 -1.07543945 23.51318359 C-1.08752787 20.05305221 -1.09323344 16.5929611 -1.09765625 13.1328125 C-1.10281754 12.04944611 -1.10797882 10.96607971 -1.11329651 9.84988403 C-1.11337204 8.8489975 -1.11344757 7.84811096 -1.11352539 6.81689453 C-1.115746 5.93309113 -1.11796661 5.04928772 -1.12025452 4.13870239 C-1 2 -1 2 0 0 Z " fill="#0D1F32" transform="translate(626,254)"/>
<path d="M0 0 C12.21 0 24.42 0 37 0 C36.67 0.66 36.34 1.32 36 2 C24.36570914 4.32685817 11.72882279 3.12468164 0 2 C0 1.34 0 0.68 0 0 Z " fill="#0B1425" transform="translate(587,310)"/>
<path d="M0 0 C6.90623799 2.04875561 13.16575495 4.89761131 19.5625 8.1875 C20.93245117 8.88262695 20.93245117 8.88262695 22.33007812 9.59179688 C24.55626022 10.72237103 26.77941297 11.85848699 29 13 C29 13.33 29 13.66 29 14 C23.80600709 13.47862079 19.86147144 12.23911807 15.1875 9.9375 C11.26194138 7.78950035 11.26194138 7.78950035 7 7 C7 6.34 7 5.68 7 5 C5.5459375 4.5978125 5.5459375 4.5978125 4.0625 4.1875 C3.051875 3.795625 2.04125 3.40375 1 3 C0.67 2.01 0.34 1.02 0 0 Z " fill="#233041" transform="translate(190,33)"/>
<path d="M0 0 C0.66 0 1.32 0 2 0 C1.7834375 0.71285156 1.566875 1.42570312 1.34375 2.16015625 C-1.0257519 10.31080398 -2.11407737 16.30205029 1.44140625 24.203125 C2 26 2 26 1 29 C-3.90915066 21.87381356 -4.83307276 16.5795675 -4 8 C-2.95367535 4.99809916 -1.67867292 2.7278435 0 0 Z " fill="#232E3D" transform="translate(587,121)"/>
<path d="M0 0 C5.92429044 1.73539821 11.3358988 4.44551609 16.875 7.125 C17.84953125 7.59292969 18.8240625 8.06085937 19.828125 8.54296875 C22.22029499 9.69214845 24.61084316 10.84457243 27 12 C26.01 12.66 25.02 13.32 24 14 C21.56396484 13.26489258 21.56396484 13.26489258 18.7109375 11.89453125 C17.68742187 11.40533203 16.66390625 10.91613281 15.609375 10.41210938 C14.54203125 9.88423828 13.4746875 9.35636719 12.375 8.8125 C11.29992187 8.30396484 10.22484375 7.79542969 9.1171875 7.27148438 C3.21530771 4.40624097 3.21530771 4.40624097 1 3 C0.67 2.01 0.34 1.02 0 0 Z " fill="#243041" transform="translate(228,51)"/>
<path d="M0 0 C2 2 2 2 2.22705078 4.98095703 C2.21657715 6.22731934 2.20610352 7.47368164 2.1953125 8.7578125 C2.1924826 9.42086395 2.18965271 10.08391541 2.18673706 10.76705933 C2.17553435 12.88655583 2.15043051 15.00563104 2.125 17.125 C2.11497028 18.56119182 2.10584441 19.99739025 2.09765625 21.43359375 C2.075595 24.95586628 2.04106494 28.47789203 2 32 C0.515 32.495 0.515 32.495 -1 33 C-0.67 22.11 -0.34 11.22 0 0 Z " fill="#283545" transform="translate(626,275)"/>
<path d="M0 0 C22.80127986 -0.20638953 22.80127986 -0.20638953 32 1 C28.77214132 3.15190578 27.86503921 3.25587158 24.140625 3.265625 C23.18929687 3.26820313 22.23796875 3.27078125 21.2578125 3.2734375 C20.26523438 3.26570313 19.27265625 3.25796875 18.25 3.25 C17.27289063 3.25773437 16.29578125 3.26546875 15.2890625 3.2734375 C9.79992195 3.25864197 5.18514964 2.82494094 0 1 C0 0.67 0 0.34 0 0 Z " fill="#212B3A" transform="translate(153,272)"/>
<path d="M0 0 C2.7294586 0.14143832 5.45848123 0.28799529 8.1875 0.4375 C8.95642578 0.47681641 9.72535156 0.51613281 10.51757812 0.55664062 C14.44962996 0.77602549 18.13950014 1.19781821 22 2 C24.43505237 2.21698487 26.87301384 2.40290745 29.3125 2.5625 C30.56675781 2.64628906 31.82101563 2.73007812 33.11328125 2.81640625 C34.54220703 2.90728516 34.54220703 2.90728516 36 3 C36 3.33 36 3.66 36 4 C31.93756043 4.05819473 27.87522854 4.09366215 23.8125 4.125 C22.66201172 4.14175781 21.51152344 4.15851563 20.32617188 4.17578125 C19.21435547 4.18222656 18.10253906 4.18867188 16.95703125 4.1953125 C15.42526245 4.21102295 15.42526245 4.21102295 13.86254883 4.22705078 C10.85151571 3.98822257 8.74787789 3.20857204 6 2 C4.0075675 1.62406934 2.0081326 1.28020455 0 1 C0 0.67 0 0.34 0 0 Z " fill="#2F3B49" transform="translate(146,312)"/>
<path d="M0 0 C0.99 0.33 1.98 0.66 3 1 C-0.70836772 5.28780017 -4.3161682 7.92468047 -10 9 C-15.01562888 9.23399486 -19.98385498 9.17634885 -25 9 C-25.33 8.01 -25.66 7.02 -26 6 C-25.11699219 6.04640625 -24.23398437 6.0928125 -23.32421875 6.140625 C-15.20909709 6.38468881 -8.27386644 5.86997943 -1 2 C-0.67 1.34 -0.34 0.68 0 0 Z " fill="#2B3A49" transform="translate(362,272)"/>
<path d="M0 0 C0.99 0.33 1.98 0.66 3 1 C3.2560584 5.04043108 3.47506671 9.08205908 3.6875 13.125 C3.76033203 14.26710938 3.83316406 15.40921875 3.90820312 16.5859375 C4.44478083 27.44374526 4.44478083 27.44374526 1 32 C-0.485 32.495 -0.485 32.495 -2 33 C-1.690625 32.34 -1.38125 31.68 -1.0625 31 C1.25964249 24.44336239 1.15900653 17.50565522 1.125 10.625 C1.12886719 9.81933594 1.13273437 9.01367188 1.13671875 8.18359375 C1.24255012 3.9578211 1.24255012 3.9578211 0 0 Z " fill="#344354" transform="translate(49,102)"/>
<path d="M0 0 C0.66 0.33 1.32 0.66 2 1 C2 1.99 2 2.98 2 4 C-0.81824192 5.40912096 -3.17251282 5.11183553 -6.3203125 5.09765625 C-7.57714844 5.09443359 -8.83398438 5.09121094 -10.12890625 5.08789062 C-11.44761719 5.07951172 -12.76632812 5.07113281 -14.125 5.0625 C-15.46484211 5.05748489 -16.804686 5.05292201 -18.14453125 5.04882812 C-21.42973206 5.03701086 -24.71484397 5.02053617 -28 5 C-28 4.01 -28 3.02 -28 2 C-27.36497559 2.01047363 -26.72995117 2.02094727 -26.07568359 2.03173828 C-23.1754966 2.07352467 -20.27537318 2.09939771 -17.375 2.125 C-15.87646484 2.15013672 -15.87646484 2.15013672 -14.34765625 2.17578125 C-9.08561389 2.21062921 -4.97120039 1.91447523 0 0 Z " fill="#344557" transform="translate(726,281)"/>
<path d="M0 0 C0.66 0.33 1.32 0.66 2 1 C0.22970554 2.29240512 -1.54125498 3.58389793 -3.3125 4.875 C-4.29863281 5.59429687 -5.28476563 6.31359375 -6.30078125 7.0546875 C-11.79339849 11.01318733 -11.79339849 11.01318733 -14.9375 10.8125 C-18.03534292 9.99062331 -19.54275133 8.96898328 -22 7 C-21.29875 7.06960937 -20.5975 7.13921875 -19.875 7.2109375 C-14.43881573 7.52115454 -10.8937238 7.49714603 -6.5 4.0625 C-5.58734375 3.24458984 -5.58734375 3.24458984 -4.65625 2.41015625 C-3 1 -3 1 0 0 Z " fill="#263343" transform="translate(102,109)"/>
<path d="M0 0 C4.87421384 4.71698113 4.87421384 4.71698113 5.3125 9.1875 C4.92614976 13.90097295 3.55780736 16.08335749 1 20 C0.34 20 -0.32 20 -1 20 C-1.33 21.32 -1.66 22.64 -2 24 C-2.25 21.3125 -2.25 21.3125 -2 18 C-1.319375 17.21625 -0.63875 16.4325 0.0625 15.625 C2.19583426 12.73467616 2.23957103 12.3537637 1.8125 9 C1.56421198 7.66228496 1.29458017 6.32828875 1 5 C0.814375 4.01 0.62875 3.02 0.4375 2 C0.293125 1.34 0.14875 0.68 0 0 Z " fill="#283545" transform="translate(65,132)"/>
<path d="M0 0 C2.58709084 3.88063626 4.51181949 8.00411177 6.5625 12.1875 C7.98147784 15.09706984 7.98147784 15.09706984 10 18 C9.67 18.99 9.34 19.98 9 21 C-0.53084416 8.8474026 -0.53084416 8.8474026 0 0 Z " fill="#222C3A" transform="translate(648,277)"/>
<path d="M0 0 C2.61497941 0.44828218 4.92344056 0.96776444 7.375 2 C10.1038853 3.16054496 10.1038853 3.16054496 13.625 3.4375 C16.99878278 3.99979713 18.019638 4.3206867 20 7 C13.30146927 7.49618746 7.91597439 6.28787424 2 3 C1.34 2.01 0.68 1.02 0 0 Z " fill="#273446" transform="translate(590,151)"/>
<path d="M0 0 C0.33 0 0.66 0 1 0 C1.19676277 8.29683005 1.25943749 15.95075394 -1 24 C-1.33 24 -1.66 24 -2 24 C-2.3 4.6 -2.3 4.6 0 0 Z " fill="#131E2F" transform="translate(62,151)"/>
<path d="M0 0 C-2.26562546 1.50842171 -4.53686163 3.00682251 -6.8125 4.5 C-7.45509766 4.92925781 -8.09769531 5.35851562 -8.75976562 5.80078125 C-13.66015625 9 -13.66015625 9 -17 9 C-13.45152738 3.60015037 -6.78821309 -2.49929664 0 0 Z " fill="#172334" transform="translate(123,117)"/>
<path d="M0 0 C0.99 0.66 1.98 1.32 3 2 C2.125 7.75 2.125 7.75 1 10 C0.01 10 -0.98 10 -2 10 C-2.33 11.98 -2.66 13.96 -3 16 C-4.49828872 12.11764181 -3.43110582 9.56550712 -2.0625 5.75 C-1.68222656 4.67234375 -1.30195313 3.5946875 -0.91015625 2.484375 C-0.45962891 1.25460938 -0.45962891 1.25460938 0 0 Z " fill="#28394D" transform="translate(277,207)"/>
<path d="M0 0 C0.33 0 0.66 0 1 0 C1.23668569 7.03482474 0.7879537 13.1834265 -1 20 C-3.43364956 16.27464413 -3.09442029 13.21650842 -2.75 8.875 C-2.66234375 7.63492187 -2.5746875 6.39484375 -2.484375 5.1171875 C-2 2 -2 2 0 0 Z " fill="#35414F" transform="translate(772,262)"/>
<path d="M0 0 C2.00384991 3.00577487 3.26119742 5.84977264 4.625 9.1875 C5.07101562 10.27417969 5.51703125 11.36085938 5.9765625 12.48046875 C6.31429688 13.31191406 6.65203125 14.14335937 7 15 C6.34 15.66 5.68 16.32 5 17 C4.71125 16.030625 4.4225 15.06125 4.125 14.0625 C3.35785318 10.89335797 3.35785318 10.89335797 1 10 C-0.1577506 6.52674819 -0.06866652 3.63932552 0 0 Z " fill="#243140" transform="translate(276,263)"/>
<path d="M0 0 C0.33 0.99 0.66 1.98 1 3 C0.236875 2.690625 -0.52625 2.38125 -1.3125 2.0625 C-4.64303629 0.74577635 -7.45060102 -0.128979 -11.01171875 -0.31640625 C-12.14770508 -0.37924805 -12.14770508 -0.37924805 -13.30664062 -0.44335938 C-14.48516602 -0.50233398 -14.48516602 -0.50233398 -15.6875 -0.5625 C-16.48478516 -0.60568359 -17.28207031 -0.64886719 -18.10351562 -0.69335938 C-20.06881447 -0.79927368 -22.03438496 -0.90012551 -24 -1 C-24 -1.33 -24 -1.66 -24 -2 C-21.31297439 -2.25086966 -18.62768528 -2.47611241 -15.9375 -2.6875 C-15.18533203 -2.76033203 -14.43316406 -2.83316406 -13.65820312 -2.90820312 C-8.25259782 -3.30601823 -4.74696828 -2.69756195 0 0 Z " fill="#384859" transform="translate(725,197)"/>
<path d="M0 0 C0.66 0.33 1.32 0.66 2 1 C1.875 2.75 1.875 2.75 1 5 C-1.75 7.0625 -1.75 7.0625 -5 9 C-5.94875 9.5775 -6.8975 10.155 -7.875 10.75 C-8.926875 11.36875 -8.926875 11.36875 -10 12 C-8.52278578 8.54798361 -6.56205999 6.35038064 -3.875 3.75 C-3.15054687 3.04359375 -2.42609375 2.3371875 -1.6796875 1.609375 C-1.12539063 1.07828125 -0.57109375 0.5471875 0 0 Z " fill="#263647" transform="translate(298,179)"/>
<path d="M0 0 C0.33 0 0.66 0 1 0 C1.12117187 0.66386719 1.24234375 1.32773438 1.3671875 2.01171875 C2.22547708 6.53424459 3.03971311 10.79938524 5 15 C1.83884224 13.63016497 1.0072908 13.0109362 -1 10 C-1.23046875 7.7734375 -1.23046875 7.7734375 -1.1875 5.375 C-1.17783203 4.18003906 -1.17783203 4.18003906 -1.16796875 2.9609375 C-1 1 -1 1 0 0 Z " fill="#1B293A" transform="translate(688,202)"/>
<path d="M0 0 C2.87460163 4.31190245 3.53867848 9.01278296 2.61328125 14.14453125 C2.14254293 15.78376895 1.58009855 17.39619812 1 19 C0.34 18.01 -0.32 17.02 -1 16 C-0.34 16 0.32 16 1 16 C0.84402344 15.09636719 0.68804688 14.19273437 0.52734375 13.26171875 C0.33269531 12.08222656 0.13804687 10.90273437 -0.0625 9.6875 C-0.35833984 7.92986328 -0.35833984 7.92986328 -0.66015625 6.13671875 C-1 3 -1 3 0 0 Z " fill="#2C394A" transform="translate(627,125)"/>
<path d="M0 0 C1.01573289 3.04719867 1.0097124 3.98833004 0.44140625 7.01171875 C0.30283203 7.76904297 0.16425781 8.52636719 0.02148438 9.30664062 C-0.12998047 10.09232422 -0.28144531 10.87800781 -0.4375 11.6875 C-0.58509766 12.48478516 -0.73269531 13.28207031 -0.88476562 14.10351562 C-1.24984964 16.07025852 -1.62405289 18.03530467 -2 20 C-2.33 20 -2.66 20 -3 20 C-3.99989549 13.40609458 -4.00925164 8.38232875 -2 2 C-1.34 2 -0.68 2 0 2 C0 1.34 0 0.68 0 0 Z " fill="#283545" transform="translate(119,184)"/>
<path d="M0 0 C1.98498051 0.92512666 3.96286018 1.86550237 5.9375 2.8125 C7.03964844 3.33457031 8.14179688 3.85664062 9.27734375 4.39453125 C12 6 12 6 13 9 C9.34061828 7.56835889 5.76011932 6.01065704 2.1875 4.375 C1.21167969 3.92898437 0.23585937 3.48296875 -0.76953125 3.0234375 C-1.50558594 2.68570313 -2.24164063 2.34796875 -3 2 C-2.01 1.34 -1.02 0.68 0 0 Z " fill="#253242" transform="translate(222,99)"/>
<path d="M0 0 C0.66 0.33 1.32 0.66 2 1 C-0.31043375 6.67106467 -4.7338541 10.14123508 -10 13 C-8.48446596 9.52224821 -6.4226544 7.0442016 -3.875 4.25 C-3.15054688 3.45078125 -2.42609375 2.6515625 -1.6796875 1.828125 C-0.84824219 0.92320312 -0.84824219 0.92320312 0 0 Z " fill="#283645" transform="translate(99,130)"/>
<path d="M0 0 C3.08089673 2.77280706 4.68775452 5.06326356 6 9 C6.66 9 7.32 9 8 9 C7.67 10.32 7.34 11.64 7 13 C5.63353852 11.40629329 4.28212834 9.79967018 2.9375 8.1875 C2.18339844 7.29417969 1.42929687 6.40085937 0.65234375 5.48046875 C0.10707031 4.66191406 -0.43820312 3.84335937 -1 3 C-0.67 2.01 -0.34 1.02 0 0 Z " fill="#26313F" transform="translate(284,281)"/>
<path d="M0 0 C0.33 0 0.66 0 1 0 C1.04898438 0.86882812 1.09796875 1.73765625 1.1484375 2.6328125 C1.22320313 3.78523437 1.29796875 4.93765625 1.375 6.125 C1.44460938 7.26195312 1.51421875 8.39890625 1.5859375 9.5703125 C1.88702034 13.02608226 1.88702034 13.02608226 3.09375 16.28125 C4 19 4 19 3.125 21.375 C2.75375 21.91125 2.3825 22.4475 2 23 C-0.48260659 15.39701733 -0.18508331 7.89688807 0 0 Z " fill="#3F4F60" transform="translate(650,204)"/>
<path d="M0 0 C0.33 0 0.66 0 1 0 C1.33 3.96 1.66 7.92 2 12 C4.64 12 7.28 12 10 12 C10 12.66 10 13.32 10 14 C8.54077307 13.88590407 7.08259402 13.75834456 5.625 13.625 C4.81289063 13.55539062 4.00078125 13.48578125 3.1640625 13.4140625 C1 13 1 13 -1 11 C-0.9765625 8.3984375 -0.9765625 8.3984375 -0.625 5.375 C-0.51414062 4.37210937 -0.40328125 3.36921875 -0.2890625 2.3359375 C-0.19367188 1.56507813 -0.09828125 0.79421875 0 0 Z " fill="#202B3C" transform="translate(512,299)"/>
<path d="M0 0 C0.33 0.66 0.66 1.32 1 2 C1.66 2 2.32 2 3 2 C2.50769231 9.38461538 2.50769231 9.38461538 -0.0625 12.5 C-0.701875 12.995 -1.34125 13.49 -2 14 C-2.66 13.67 -3.32 13.34 -4 13 C-3.27876953 12.41798828 -3.27876953 12.41798828 -2.54296875 11.82421875 C-0.54250502 9.45911353 -0.51123932 7.87308547 -0.3125 4.8125 C-0.21388672 3.46091797 -0.21388672 3.46091797 -0.11328125 2.08203125 C-0.05720703 1.05142578 -0.05720703 1.05142578 0 0 Z " fill="#283445" transform="translate(732,267)"/>
<path d="M0 0 C-3 2 -3 2 -5.12109375 1.609375 C-5.88550781 1.32578125 -6.64992187 1.0421875 -7.4375 0.75 C-8.19933594 0.47671875 -8.96117187 0.2034375 -9.74609375 -0.078125 C-11.89190722 -0.95578874 -13.94332051 -1.93183844 -16 -3 C-10.17053471 -4.9431551 -5.29975033 -2.43788515 0 0 Z " fill="#303D4C" transform="translate(178,26)"/>
<path d="M0 0 C0.33 0 0.66 0 1 0 C1.66 5.94 2.32 11.88 3 18 C2.34 18 1.68 18 1 18 C0.67 19.32 0.34 20.64 0 22 C0 14.74 0 7.48 0 0 Z " fill="#2F3F50" transform="translate(375,230)"/>
<path d="M0 0 C4.67105792 1.55701931 8.08705685 4.08447373 12 7 C9 8 9 8 6.73828125 7.00390625 C5.93777344 6.52824219 5.13726563 6.05257812 4.3125 5.5625 C3.50425781 5.08941406 2.69601562 4.61632812 1.86328125 4.12890625 C1.24839844 3.75636719 0.63351562 3.38382813 0 3 C0 2.01 0 1.02 0 0 Z " fill="#293645" transform="translate(749,232)"/>
<path d="M0 0 C5.50808397 0.59015185 10.64878069 1.56663769 16 3 C13 5 13 5 10.51953125 4.7578125 C9.62621094 4.54898438 8.73289062 4.34015625 7.8125 4.125 C6.91144531 3.92132813 6.01039063 3.71765625 5.08203125 3.5078125 C4.39496094 3.34023437 3.70789063 3.17265625 3 3 C3 2.34 3 1.68 3 1 C2.01 0.67 1.02 0.34 0 0 Z " fill="#283546" transform="translate(725,225)"/>
<path d="M0 0 C0.66 0.33 1.32 0.66 2 1 C-0.64 3.64 -3.28 6.28 -6 9 C-8 8 -8 8 -9 7 C-9 5 -9 5 -7 2.875 C-6.34 2.25625 -5.68 1.6375 -5 1 C-4.34 1.33 -3.68 1.66 -3 2 C-2.67 2 -2.34 2 -2 2 C-1.34 1.34 -0.68 0.68 0 0 Z " fill="#21384F" transform="translate(668,177)"/>
<path d="M0 0 C-3.40351338 2.03219488 -6.3232927 2.36891039 -10.25 2.625 C-11.86648437 2.73714844 -11.86648437 2.73714844 -13.515625 2.8515625 C-14.33546875 2.90054687 -15.1553125 2.94953125 -16 3 C-14 0 -14 0 -10.25 -0.75 C-6.68205423 -1.08205335 -3.51065714 -0.78989786 0 0 Z " fill="#323F4D" transform="translate(200,312)"/>
<path d="M0 0 C4.29 0 8.58 0 13 0 C13 0.66 13 1.32 13 2 C8.38 2.33 3.76 2.66 -1 3 C-0.67 2.01 -0.34 1.02 0 0 Z " fill="#1D2837" transform="translate(599,112)"/>
<path d="M0 0 C5.71658336 -0.45732667 8.48649253 0.47726246 13 4 C12.67 4.99 12.34 5.98 12 7 C11.13375 6.38125 10.2675 5.7625 9.375 5.125 C6.24371814 3.15345216 3.53615531 2.01033009 0 1 C0 0.67 0 0.34 0 0 Z " fill="#263242" transform="translate(719,259)"/>
<path d="M0 0 C0.99 0.495 0.99 0.495 2 1 C2.4140625 2.9609375 2.4140625 2.9609375 2.625 5.375 C2.69976563 6.16648438 2.77453125 6.95796875 2.8515625 7.7734375 C2.96749782 9.51246725 3 11.25711002 3 13 C2.34 13 1.68 13 1 13 C-0.00496852 9.98509443 -0.10335303 7.95818308 -0.0625 4.8125 C-0.05347656 3.91144531 -0.04445313 3.01039063 -0.03515625 2.08203125 C-0.02355469 1.39496094 -0.01195312 0.70789063 0 0 Z " fill="#1F2E3F" transform="translate(625,170)"/>
<path d="M0 0 C1.76923828 0.01353516 1.76923828 0.01353516 3.57421875 0.02734375 C4.47785156 0.03894531 5.38148438 0.05054687 6.3125 0.0625 C5.9825 0.7225 5.6525 1.3825 5.3125 2.0625 C2.0125 2.0625 -1.2875 2.0625 -4.6875 2.0625 C-5.0175 2.7225 -5.3475 3.3825 -5.6875 4.0625 C-7.6675 4.0625 -9.6475 4.0625 -11.6875 4.0625 C-11.0275 3.7325 -10.3675 3.4025 -9.6875 3.0625 C-9.6875 2.4025 -9.6875 1.7425 -9.6875 1.0625 C-6.26517028 -0.07827657 -3.60076783 -0.03565117 0 0 Z " fill="#36475B" transform="translate(142.6875,91.9375)"/>
<path d="M0 0 C1.46067199 0.45082469 2.91848032 0.91093537 4.375 1.375 C5.18710938 1.63023438 5.99921875 1.88546875 6.8359375 2.1484375 C9 3 9 3 11 5 C9.02 5.99 9.02 5.99 7 7 C7 6.34 7 5.68 7 5 C5.5459375 4.5978125 5.5459375 4.5978125 4.0625 4.1875 C3.051875 3.795625 2.04125 3.40375 1 3 C0.67 2.01 0.34 1.02 0 0 Z " fill="#273649" transform="translate(190,33)"/>
<path d="M0 0 C3.26782914 1.08927638 3.81937333 1.68347929 5.75 4.375 C6.42289063 5.28378906 6.42289063 5.28378906 7.109375 6.2109375 C8 8 8 8 7 11 C6.01216806 9.92456217 5.03506057 8.83926783 4.0625 7.75 C3.51722656 7.14671875 2.97195313 6.5434375 2.41015625 5.921875 C0.93787201 3.91532695 0.42470811 2.42997551 0 0 Z " fill="#273240" transform="translate(654,229)"/>
<path d="M0 0 C0.66 0.33 1.32 0.66 2 1 C-0.72478774 4.36591427 -4.06856792 5.44226276 -8 7 C-8.66 6.34 -9.32 5.68 -10 5 C-8.38007835 4.13624104 -6.75388139 3.28424146 -5.125 2.4375 C-4.22007813 1.96183594 -3.31515625 1.48617187 -2.3828125 0.99609375 C-1.20332031 0.50302734 -1.20332031 0.50302734 0 0 Z " fill="#273343" transform="translate(76,64)"/>
<path d="M0 0 C4.47238653 1.41807378 8.71146306 3.11304374 13 5 C11.26171875 6.10546875 11.26171875 6.10546875 9 7 C6.89453125 6.42578125 6.89453125 6.42578125 4.8125 5.3125 C4.11769531 4.95800781 3.42289063 4.60351562 2.70703125 4.23828125 C1 3 1 3 0 0 Z " fill="#2A3849" transform="translate(228,51)"/>
<path d="M0 0 C0.33 0.99 0.66 1.98 1 3 C-1.10889262 6.82724957 -2.79609368 9.49860488 -7 11 C-5.22054913 6.95579349 -2.60470327 3.53921513 0 0 Z " fill="#232E3D" transform="translate(373,260)"/>
<path d="M0 0 C1.12377697 3.30435084 0.89554742 5.0506862 -0.4375 8.25 C-0.72496094 8.95640625 -1.01242187 9.6628125 -1.30859375 10.390625 C-1.53675781 10.92171875 -1.76492188 11.4528125 -2 12 C-3.125 10.375 -3.125 10.375 -4 8 C-3.125 4.75 -3.125 4.75 -2 2 C-1.34 2 -0.68 2 0 2 C0 1.34 0 0.68 0 0 Z " fill="#2C3847" transform="translate(261,251)"/>
<path d="M0 0 C0.66 0.33 1.32 0.66 2 1 C1.34 1.66 0.68 2.32 0 3 C-0.66 2.67 -1.32 2.34 -2 2 C-2 2.66 -2 3.32 -2 4 C-5.47307692 6.10865385 -5.47307692 6.10865385 -8.140625 5.55859375 C-9.06101562 5.28208984 -9.06101562 5.28208984 -10 5 C-8.38007835 4.13624104 -6.75388139 3.28424146 -5.125 2.4375 C-4.22007812 1.96183594 -3.31515625 1.48617187 -2.3828125 0.99609375 C-1.20332031 0.50302734 -1.20332031 0.50302734 0 0 Z " fill="#2C3847" transform="translate(680,168)"/>
<path d="M0 0 C1.48199902 0.44909061 2.96055236 0.90956564 4.4375 1.375 C5.26121094 1.63023437 6.08492188 1.88546875 6.93359375 2.1484375 C9 3 9 3 10 5 C7 6 7 6 5.17578125 5.22265625 C3.45052083 4.1484375 1.72526042 3.07421875 0 2 C0 1.34 0 0.68 0 0 Z " fill="#263343" transform="translate(371,169)"/>
<path d="M0 0 C1.9375 0.375 1.9375 0.375 4 1 C5.35439668 3.70879335 5.06501451 6.00933268 5 9 C4.01 9.33 3.02 9.66 2 10 C2.33 7.69 2.66 5.38 3 3 C2.34 3 1.68 3 1 3 C0.67 2.01 0.34 1.02 0 0 Z " fill="#283441" transform="translate(295,83)"/>
<path d="M0 0 C-2.96178773 1.67110042 -5.37071192 2.32682752 -8.75 2.625 C-9.54921875 2.69976562 -10.3484375 2.77453125 -11.171875 2.8515625 C-11.77515625 2.90054687 -12.3784375 2.94953125 -13 3 C-12.01 2.67 -11.02 2.34 -10 2 C-10 1.34 -10 0.68 -10 0 C-6.30458414 -0.95024979 -3.69541586 -0.95024979 0 0 Z " fill="#323F4D" transform="translate(369,312)"/>
<path d="M0 0 C5.94 1.485 5.94 1.485 12 3 C12 3.33 12 3.66 12 4 C10.741875 4.020625 9.48375 4.04125 8.1875 4.0625 C7.47980469 4.07410156 6.77210938 4.08570313 6.04296875 4.09765625 C4 4 4 4 1 3 C0.67 2.01 0.34 1.02 0 0 Z " fill="#1A2432" transform="translate(675,308)"/>
<path d="M0 0 C1.32 0.33 2.64 0.66 4 1 C0.04 4.465 0.04 4.465 -4 8 C-4 4.09161134 -2.49432124 2.88405893 0 0 Z " fill="#131E2E" transform="translate(668,174)"/>
<path d="M0 0 C4.75 0.75 4.75 0.75 7 3 C6.67 4.32 6.34 5.64 6 7 C4.02 4.69 2.04 2.38 0 0 Z " fill="#2B3949" transform="translate(202,157)"/>
<path d="M0 0 C4.3177458 0.50797009 8.03302114 1.19682779 12 3 C10.375 4.125 10.375 4.125 8 5 C3.80215021 4.07647305 2.42683405 3.64025108 0 0 Z " fill="#2C3A4B" transform="translate(204,110)"/>
<path d="M0 0 C5.15171623 -0.09038099 9.91913204 0.15318867 15 1 C15 1.33 15 1.66 15 2 C13.25285767 2.25002209 11.50200859 2.47423194 9.75 2.6875 C8.28820312 2.87892578 8.28820312 2.87892578 6.796875 3.07421875 C3.51727269 2.9871902 2.36689329 2.19219402 0 0 Z " fill="#334558" transform="translate(181,106)"/>
<path d="M0 0 C-1.28524261 0.86380259 -2.57842419 1.71580369 -3.875 2.5625 C-4.59429687 3.03816406 -5.31359375 3.51382812 -6.0546875 4.00390625 C-6.69664062 4.33261719 -7.33859375 4.66132813 -8 5 C-8.66 4.67 -9.32 4.34 -10 4 C-6.87839899 0.56623888 -4.64008112 -1.54669371 0 0 Z " fill="#293543" transform="translate(387,304)"/>
<path d="M0 0 C0.66 0.33 1.32 0.66 2 1 C2 1.99 2 2.98 2 4 C1.2575 4.144375 0.515 4.28875 -0.25 4.4375 C-2.52027739 4.90187492 -4.75759479 5.41863569 -7 6 C-4.74259377 3.66475218 -2.7194239 1.81294927 0 0 Z " fill="#223950" transform="translate(228,295)"/>
<path d="M0 0 C4.31392226 0.4793247 6.16569547 1.7457985 9 5 C4.98525763 5 3.18024863 3.33218233 0 1 C0 0.67 0 0.34 0 0 Z " fill="#2C3948" transform="translate(662,240)"/>
<path d="M0 0 C2.61500768 2.36595933 4.38999603 4.86049226 6 8 C5.67 8.66 5.34 9.32 5 10 C1.32769295 6.92000054 0.43197635 4.7517398 0 0 Z " fill="#283543" transform="translate(403,193)"/>
<path d="M0 0 C4.12751449 0.60698743 7.3321148 2.03810791 11 4 C7.25 6 7.25 6 5 6 C4.87625 5.071875 4.87625 5.071875 4.75 4.125 C4.18741541 1.81562433 4.18741541 1.81562433 1.9375 0.75 C1.298125 0.5025 0.65875 0.255 0 0 Z " fill="#364657" transform="translate(255,64)"/>
<path d="M0 0 C-5.41538462 3.07692308 -5.41538462 3.07692308 -8.375 2.6875 C-9.179375 2.3471875 -9.179375 2.3471875 -10 2 C-9.34 2 -8.68 2 -8 2 C-8 1.34 -8 0.68 -8 0 C-4.94736336 -0.98120464 -3.05263664 -0.98120464 0 0 Z " fill="#253241" transform="translate(210,309)"/>
<path d="M0 0 C5.445 1.485 5.445 1.485 11 3 C7 5 7 5 3.8125 4.3125 C2.884375 3.879375 1.95625 3.44625 1 3 C0.67 2.01 0.34 1.02 0 0 Z " fill="#2F3C4C" transform="translate(146,268)"/>
<path d="M0 0 C0.33 0.99 0.66 1.98 1 3 C-0.9375 5.6875 -0.9375 5.6875 -3 8 C-4.32 7.67 -5.64 7.34 -7 7 C-4.66666667 4.66666667 -2.33333333 2.33333333 0 0 Z " fill="#25313F" transform="translate(209,256)"/>
<path d="M0 0 C0 0.66 0 1.32 0 2 C0.66 2.33 1.32 2.66 2 3 C-2.29 2.34 -6.58 1.68 -11 1 C-11 0.67 -11 0.34 -11 0 C-6.98195309 -0.84098656 -3.98196457 -1.05404945 0 0 Z " fill="#313E4F" transform="translate(717,256)"/>
<path d="M0 0 C2.43840236 2.43840236 3.62292893 4.85240898 5 8 C4.67 8.66 4.34 9.32 4 10 C2 8.375 2 8.375 0 6 C-0.25 2.75 -0.25 2.75 0 0 Z " fill="#273443" transform="translate(121,240)"/>
<path d="M0 0 C0.99 0 1.98 0 3 0 C4.32 2.31 5.64 4.62 7 7 C6.34 7.66 5.68 8.32 5 9 C3.35 6.03 1.7 3.06 0 0 Z " fill="#273342" transform="translate(209,164)"/>
<path d="M0 0 C3.93673644 1.31224548 6.22719294 2.91910327 9 6 C4.70042176 5.52226908 2.78280018 4.29813355 0 1 C0 0.67 0 0.34 0 0 Z " fill="#22303F" transform="translate(224,118)"/>
<path d="M0 0 C6.625 -0.125 6.625 -0.125 10 1 C10.33 1.99 10.66 2.98 11 4 C7.37 3.01 3.74 2.02 0 1 C0 0.67 0 0.34 0 0 Z " fill="#2F3D4D" transform="translate(208,96)"/>
<path d="M0 0 C0 0.66 0 1.32 0 2 C0.66 2.33 1.32 2.66 2 3 C-3.94 2.01 -3.94 2.01 -10 1 C-10 0.67 -10 0.34 -10 0 C-6.30458414 -0.95024979 -3.69541586 -0.95024979 0 0 Z " fill="#2E3E51" transform="translate(206,93)"/>
<path d="M0 0 C0.763125 0.309375 1.52625 0.61875 2.3125 0.9375 C4.18789677 1.67893593 6.08684652 2.36228217 8 3 C8.33 3.99 8.66 4.98 9 6 C2.42696629 4.1011236 2.42696629 4.1011236 0 1 C0 0.67 0 0.34 0 0 Z " fill="#222D3B" transform="translate(667,304)"/>
<path d="M0 0 C2.46800047 1.15173355 4.04783565 2.04783565 6 4 C5.67 4.99 5.34 5.98 5 7 C2.5 5.1875 2.5 5.1875 0 3 C0 2.01 0 1.02 0 0 Z " fill="#212E3E" transform="translate(296,296)"/>
<path d="M0 0 C0.66 0 1.32 0 2 0 C2 1.98 2 3.96 2 6 C1.34 6 0.68 6 0 6 C-0.33 6.66 -0.66 7.32 -1 8 C-1.04241723 5.66705225 -1.04092937 3.33297433 -1 1 C-0.67 0.67 -0.34 0.34 0 0 Z " fill="#222E3E" transform="translate(261,245)"/>
<path d="M0 0 C0.66 0 1.32 0 2 0 C3.20535714 8.03571429 3.20535714 8.03571429 2 12 C0.86235649 7.73383684 0 4.43513689 0 0 Z " fill="#354250" transform="translate(72,238)"/>
<path d="M0 0 C3.22430866 4.83646298 3.09242903 7.26939984 3 13 C2.67 13 2.34 13 2 13 C0.54815522 8.46298506 -0.23509196 4.81938524 0 0 Z " fill="#081323" transform="translate(413,217)"/>
<path d="M0 0 C0.66 0 1.32 0 2 0 C1.01 3.3 0.02 6.6 -1 10 C-1.33 10 -1.66 10 -2 10 C-2.17942163 6.05272412 -2.09350689 3.4019487 0 0 Z " fill="#17212F" transform="translate(655,189)"/>
<path d="M0 0 C3.82097239 0.53069061 6.06171403 1.49701566 9 4 C6 5 6 5 3.375 4.25 C1 3 1 3 0 0 Z " fill="#2A3747" transform="translate(737,169)"/>
<path d="M0 0 C-0.99 0.33 -1.98 0.66 -3 1 C-3 1.66 -3 2.32 -3 3 C-5.64 3 -8.28 3 -11 3 C-7.72430636 -0.27569364 -4.48909309 -0.12469703 0 0 Z " fill="#364454" transform="translate(329,166)"/>
<path d="M0 0 C2.97 0.99 5.94 1.98 9 3 C9 3.33 9 3.66 9 4 C3.375 4.25 3.375 4.25 0 2 C0 1.34 0 0.68 0 0 Z " fill="#2A3749" transform="translate(219,47)"/>
<path d="M0 0 C0.99 0.33 1.98 0.66 3 1 C1.35 2.65 -0.3 4.3 -2 6 C-2.99 5.67 -3.98 5.34 -5 5 C-3.35 3.35 -1.7 1.7 0 0 Z " fill="#2C394A" transform="translate(362,272)"/>
<path d="M0 0 C0.33 0.66 0.66 1.32 1 2 C0.06421005 4.35981813 -0.93347808 6.69631264 -2 9 C-2.66 8.01 -3.32 7.02 -4 6 C-3.25 3.375 -3.25 3.375 -2 1 C-1.34 0.67 -0.68 0.34 0 0 Z " fill="#2A3747" transform="translate(412,269)"/>
<path d="M0 0 C1.99097846 2.98646769 2.94124926 5.59687262 4 9 C3.01 9 2.02 9 1 9 C-0.4783226 6.04335481 -0.06032783 3.25770263 0 0 Z " fill="#1D2836" transform="translate(276,263)"/>
<path d="M0 0 C3.82946843 1.45255699 5.12050295 3.42895561 7 7 C6.01 7 5.02 7 4 7 C2.02 3.535 2.02 3.535 0 0 Z " fill="#131D2D" transform="translate(725,198)"/>
<path d="M0 0 C3.36591866 1.44253657 5.51047079 3.33264727 8 6 C5.6875 5.8125 5.6875 5.8125 3 5 C1.1875 2.4375 1.1875 2.4375 0 0 Z " fill="#303B49" transform="translate(746,173)"/>
<path d="M0 0 C0.556875 0.226875 1.11375 0.45375 1.6875 0.6875 C-2.74326923 3.76442308 -2.74326923 3.76442308 -5.625 3.375 C-6.4603125 3.0346875 -6.4603125 3.0346875 -7.3125 2.6875 C-2.88173077 -0.38942308 -2.88173077 -0.38942308 0 0 Z " fill="#1F2A39" transform="translate(121.3125,116.3125)"/>
<path d="M0 0 C-1.12073862 0.83905565 -2.24674547 1.67107831 -3.375 2.5 C-4.00148438 2.9640625 -4.62796875 3.428125 -5.2734375 3.90625 C-7 5 -7 5 -9 5 C-7.93411431 2.09303901 -7.29651501 1.15567038 -4.5 -0.3125 C-2 -1 -2 -1 0 0 Z " fill="#2C3948" transform="translate(104,110)"/>
<path d="M0 0 C1.32 0.66 2.64 1.32 4 2 C-0.95 3.485 -0.95 3.485 -6 5 C-5.67 4.01 -5.34 3.02 -5 2 C-3.35 1.67 -1.7 1.34 0 1 C0 0.67 0 0.34 0 0 Z " fill="#2B394C" transform="translate(126,95)"/>
<path d="M0 0 C2.64 0 5.28 0 8 0 C8 0.66 8 1.32 8 2 C8.66 2.33 9.32 2.66 10 3 C3.375 2.25 3.375 2.25 0 0 Z " fill="#2E3A47" transform="translate(318,311)"/>
<path d="M0 0 C1.9375 0.625 1.9375 0.625 4 2 C4.75 5.125 4.75 5.125 5 8 C2.27573689 5.64722731 1.1858237 3.37503669 0 0 Z " fill="#283444" transform="translate(81,265)"/>
<path d="M0 0 C3.57104439 1.87949705 5.54744301 3.17053157 7 7 C4.13302508 5.71480435 2.02392288 4.42870746 0 2 C0 1.34 0 0.68 0 0 Z " fill="#15202E" transform="translate(130,257)"/>
<path d="M0 0 C0.33 0 0.66 0 1 0 C1.33 2.97 1.66 5.94 2 9 C1.34 9 0.68 9 0 9 C-0.33 9.99 -0.66 10.98 -1 12 C-0.67 8.04 -0.34 4.08 0 0 Z " fill="#3C495A" transform="translate(71,184)"/>
<path d="M0 0 C0.66 0.99 1.32 1.98 2 3 C0.625 5.5 0.625 5.5 -1 8 C-1.66 8 -2.32 8 -3 8 C-1.125 2.25 -1.125 2.25 0 0 Z " fill="#273341" transform="translate(39,172)"/>
<path d="M0 0 C0 0.66 0 1.32 0 2 C-2.31 2.33 -4.62 2.66 -7 3 C-7 2.01 -7 1.02 -7 0 C-3.98968256 -0.93423645 -3.13349732 -1.04449911 0 0 Z " fill="#212B38" transform="translate(444,114)"/>
<path d="M0 0 C5.75 1.75 5.75 1.75 8 4 C5 5 5 5 2.3125 3.6875 C1.549375 3.130625 0.78625 2.57375 0 2 C0 1.34 0 0.68 0 0 Z " fill="#253343" transform="translate(216,114)"/>
<path d="M0 0 C2.9375 0.8125 2.9375 0.8125 6 2 C6.33 2.99 6.66 3.98 7 5 C1.25 3.25 1.25 3.25 -1 1 C-0.67 0.67 -0.34 0.34 0 0 Z " fill="#283544" transform="translate(73,111)"/>
<path d="M0 0 C-2.62198774 2.15377564 -4.64404172 3.40072174 -8 4 C-7 1 -7 1 -5.125 -0.25 C-3 -1 -3 -1 0 0 Z " fill="#2A3546" transform="translate(278,104)"/>
<path d="M0 0 C-2.85306797 2.32472205 -5.54074837 3.7508258 -9 5 C-7.35234966 0.05704899 -4.76872479 -0.25776891 0 0 Z " fill="#2C3949" transform="translate(114,103)"/>
<path d="M0 0 C5.75 1.75 5.75 1.75 8 4 C2.46153846 4.36923077 2.46153846 4.36923077 0.125 2.5 C-0.24625 2.005 -0.6175 1.51 -1 1 C-0.67 0.67 -0.34 0.34 0 0 Z " fill="#2B394A" transform="translate(281,76)"/>
<path d="M0 0 C1.32 0.33 2.64 0.66 4 1 C2.68 1.33 1.36 1.66 0 2 C0 1.34 0 0.68 0 0 Z " fill="#2D4258" transform="translate(171,92)"/>
<path d="M0 0 C0.33 0 0.66 0 1 0 C1 1.65 1 3.3 1 5 C0.67 5 0.34 5 0 5 C0 3.35 0 1.7 0 0 Z " fill="#314358" transform="translate(582,290)"/>
<path d="M0 0 C0.66 0.99 1.32 1.98 2 3 C1.01 2.67 0.02 2.34 -1 2 C-0.67 1.34 -0.34 0.68 0 0 Z " fill="#38485B" transform="translate(283,285)"/>
<path d="M0 0 C0.33 0.99 0.66 1.98 1 3 C0.01 3.495 0.01 3.495 -1 4 C-0.67 2.68 -0.34 1.36 0 0 Z " fill="#344559" transform="translate(275,270)"/>
<path d="M0 0 C0.33 0 0.66 0 1 0 C1 1.65 1 3.3 1 5 C0.67 5 0.34 5 0 5 C0 3.35 0 1.7 0 0 Z " fill="#2C3F56" transform="translate(582,226)"/>
<path d="M0 0 C1.32 0.33 2.64 0.66 4 1 C3.01 1.33 2.02 1.66 1 2 C0.67 1.34 0.34 0.68 0 0 Z " fill="#2E4258" transform="translate(186,93)"/>
<path d="M0 0 C1 4 1 4 1 4 Z " fill="#2B3F56" transform="translate(582,220)"/>
<path d="M0 0 C0.66 0 1.32 0 2 0 C2 0.66 2 1.32 2 2 C1.34 2 0.68 2 0 2 C0 1.34 0 0.68 0 0 Z " fill="#3C4E5F" transform="translate(66,211)"/>
<path d="M0 0 C1 4 1 4 1 4 Z " fill="#2D4056" transform="translate(582,201)"/>
<path d="M0 0 C0.66 0 1.32 0 2 0 C1.67 0.99 1.34 1.98 1 3 C0.67 2.01 0.34 1.02 0 0 Z " fill="#3B4C5E" transform="translate(66,202)"/>
<path d="M0 0 C1 4 1 4 1 4 Z " fill="#2C3F56" transform="translate(582,196)"/>
<path d="M0 0 C0.99 0.33 1.98 0.66 3 1 C2.01 1.33 1.02 1.66 0 2 C0 1.34 0 0.68 0 0 Z " fill="#34475C" transform="translate(711,197)"/>
<path d="M0 0 C0.99 0.33 1.98 0.66 3 1 C2.01 1 1.02 1 0 1 C0 0.67 0 0.34 0 0 Z " fill="#32475B" transform="translate(164,149)"/>
<path d="M0 0 C1.485 0.99 1.485 0.99 3 2 C2.01 2 1.02 2 0 2 C0 1.34 0 0.68 0 0 Z " fill="#33475B" transform="translate(216,100)"/>
<path d="M0 0 C0.33 0.66 0.66 1.32 1 2 C0.34 1.67 -0.32 1.34 -1 1 C-0.67 0.67 -0.34 0.34 0 0 Z " fill="#415160" transform="translate(702,318)"/>
<path d="M0 0 C0.99 0.495 0.99 0.495 2 1 C1.01 1.495 1.01 1.495 0 2 C0 1.34 0 0.68 0 0 Z " fill="#404F60" transform="translate(123,308)"/>
<path d="" fill="#35475C" transform="translate(0,0)"/>
<path d="M0 0 C0.66 0.66 1.32 1.32 2 2 C1.34 2 0.68 2 0 2 C0 1.34 0 0.68 0 0 Z " fill="#384A5D" transform="translate(651,292)"/>
<path d="" fill="#314457" transform="translate(0,0)"/>
<path d="M0 0 C3 1 3 1 3 1 Z " fill="#364A5D" transform="translate(648,264)"/>
<path d="M0 0 C0.66 0 1.32 0 2 0 C1.67 0.66 1.34 1.32 1 2 C0.67 1.34 0.34 0.68 0 0 Z " fill="#33465D" transform="translate(722,262)"/>
<path d="" fill="#31435A" transform="translate(0,0)"/>
<path d="M0 0 C3 1 3 1 3 1 Z " fill="#30445A" transform="translate(715,197)"/>
<path d="M0 0 C0.66 0 1.32 0 2 0 C1.67 0.66 1.34 1.32 1 2 C0.67 1.34 0.34 0.68 0 0 Z " fill="#34465B" transform="translate(708,197)"/>
<path d="M0 0 C3 1 3 1 3 1 Z " fill="#3E5062" transform="translate(330,163)"/>
<path d="M0 0 C0.99 0.495 0.99 0.495 2 1 C1.01 1.495 1.01 1.495 0 2 C0 1.34 0 0.68 0 0 Z " fill="#33455A" transform="translate(586,150)"/>
<path d="" fill="#3D4E5E" transform="translate(0,0)"/>
<path d="M0 0 C3 1 3 1 3 1 Z " fill="#3C4F62" transform="translate(66,64)"/>
<path d="M0 0 C2 1 2 1 2 1 Z " fill="#404F5F" transform="translate(694,316)"/>
<path d="M0 0 C2 1 2 1 2 1 Z " fill="#3E4D5B" transform="translate(728,315)"/>
<path d="" fill="#415261" transform="translate(0,0)"/>
<path d="M0 0 C2 1 2 1 2 1 Z " fill="#404D5E" transform="translate(672,310)"/>
<path d="M0 0 C2 1 2 1 2 1 Z " fill="#3F4F61" transform="translate(506,309)"/>
<path d="M0 0 C2 1 2 1 2 1 Z " fill="#404E5C" transform="translate(751,307)"/>
<path d="M0 0 C2 1 2 1 2 1 Z " fill="#374A5E" transform="translate(506,297)"/>
<path d="" fill="#39475C" transform="translate(0,0)"/>
<path d="" fill="#2D4055" transform="translate(0,0)"/>
<path d="M0 0 C2 1 2 1 2 1 Z " fill="#37495A" transform="translate(274,277)"/>
<path d="" fill="#314459" transform="translate(0,0)"/>
<path d="" fill="#364559" transform="translate(0,0)"/>
<path d="" fill="#2F4459" transform="translate(0,0)"/>
<path d="M0 0 C2 1 2 1 2 1 Z " fill="#354A5E" transform="translate(658,264)"/>
<path d="M0 0 C2 1 2 1 2 1 Z " fill="#35485D" transform="translate(654,264)"/>
<path d="" fill="#37465C" transform="translate(0,0)"/>
<path d="" fill="#2C3F56" transform="translate(0,0)"/>
<path d="" fill="#2B3F55" transform="translate(0,0)"/>
<path d="" fill="#39495A" transform="translate(0,0)"/>
<path d="" fill="#2E4156" transform="translate(0,0)"/>
<path d="" fill="#31445A" transform="translate(0,0)"/>
<path d="M0 0 C2 1 2 1 2 1 Z " fill="#334758" transform="translate(731,224)"/>
<path d="" fill="#32435A" transform="translate(0,0)"/>
<path d="" fill="#2C4157" transform="translate(0,0)"/>
<path d="M0 0 C2 1 2 1 2 1 Z " fill="#3B4E60" transform="translate(66,209)"/>
<path d="" fill="#2B4057" transform="translate(0,0)"/>
<path d="" fill="#2D4357" transform="translate(0,0)"/>
<path d="M0 0 C2 1 2 1 2 1 Z " fill="#36495D" transform="translate(654,185)"/>
<path d="" fill="#2E4156" transform="translate(0,0)"/>
<path d="M0 0 C2 1 2 1 2 1 Z " fill="#374B5D" transform="translate(658,178)"/>
<path d="M0 0 C2 1 2 1 2 1 Z " fill="#384B5F" transform="translate(658,176)"/>
<path d="" fill="#2E4258" transform="translate(0,0)"/>
<path d="" fill="#2F445B" transform="translate(0,0)"/>
<path d="M0 0 C2 1 2 1 2 1 Z " fill="#3D4F5F" transform="translate(691,163)"/>
<path d="M0 0 C2 1 2 1 2 1 Z " fill="#34465C" transform="translate(613,158)"/>
<path d="M0 0 C2 1 2 1 2 1 Z " fill="#324659" transform="translate(170,149)"/>
<path d="M0 0 C2 1 2 1 2 1 Z " fill="#324359" transform="translate(90,136)"/>
<path d="M0 0 C2 1 2 1 2 1 Z " fill="#32475B" transform="translate(77,118)"/>
<path d="M0 0 C2 1 2 1 2 1 Z " fill="#3E4F61" transform="translate(594,112)"/>
<path d="M0 0 C2 1 2 1 2 1 Z " fill="#344A5D" transform="translate(270,109)"/>
<path d="M0 0 C2 1 2 1 2 1 Z " fill="#304357" transform="translate(149,105)"/>
<path d="M0 0 C2 1 2 1 2 1 Z " fill="#2D4055" transform="translate(158,104)"/>
<path d="M0 0 C2 1 2 1 2 1 Z " fill="#31465D" transform="translate(195,95)"/>
<path d="M0 0 C2 1 2 1 2 1 Z " fill="#30435A" transform="translate(141,95)"/>
<path d="M0 0 C2 1 2 1 2 1 Z " fill="#314359" transform="translate(193,94)"/>
<path d="" fill="#3B4E60" transform="translate(0,0)"/>
<path d="" fill="#415260" transform="translate(0,0)"/>
<path d="" fill="#415163" transform="translate(0,0)"/>
<path d="" fill="#435262" transform="translate(0,0)"/>
<path d="" fill="#415060" transform="translate(0,0)"/>
<path d="" fill="#425462" transform="translate(0,0)"/>
<path d="" fill="#414F5F" transform="translate(0,0)"/>
<path d="" fill="#3E4F5E" transform="translate(0,0)"/>
<path d="" fill="#425164" transform="translate(0,0)"/>
<path d="" fill="#445361" transform="translate(0,0)"/>
<path d="" fill="#3F4C61" transform="translate(0,0)"/>
<path d="" fill="#3F4F5F" transform="translate(0,0)"/>
<path d="" fill="#404E61" transform="translate(0,0)"/>
<path d="" fill="#3F4E5B" transform="translate(0,0)"/>
<path d="" fill="#3D4C5B" transform="translate(0,0)"/>
<path d="" fill="#3D4859" transform="translate(0,0)"/>
<path d="" fill="#405062" transform="translate(0,0)"/>
<path d="" fill="#425263" transform="translate(0,0)"/>
<path d="" fill="#3D4C5C" transform="translate(0,0)"/>
<path d="" fill="#415160" transform="translate(0,0)"/>
<path d="" fill="#404E60" transform="translate(0,0)"/>
<path d="" fill="#404F5F" transform="translate(0,0)"/>
<path d="" fill="#3D4F60" transform="translate(0,0)"/>
<path d="" fill="#414E60" transform="translate(0,0)"/>
<path d="" fill="#3C4E5F" transform="translate(0,0)"/>
<path d="" fill="#3D4D60" transform="translate(0,0)"/>
<path d="" fill="#3C4F5E" transform="translate(0,0)"/>
<path d="" fill="#3B4C5E" transform="translate(0,0)"/>
<path d="" fill="#3B4C60" transform="translate(0,0)"/>
<path d="" fill="#40515F" transform="translate(0,0)"/>
<path d="" fill="#3C4C5B" transform="translate(0,0)"/>
<path d="" fill="#3B4B5D" transform="translate(0,0)"/>
<path d="" fill="#3F4E5F" transform="translate(0,0)"/>
<path d="" fill="#3E4B5D" transform="translate(0,0)"/>
<path d="" fill="#3F4E5E" transform="translate(0,0)"/>
<path d="" fill="#3D4C5F" transform="translate(0,0)"/>
<path d="" fill="#35465A" transform="translate(0,0)"/>
<path d="" fill="#3E4F60" transform="translate(0,0)"/>
<path d="" fill="#35485F" transform="translate(0,0)"/>
<path d="" fill="#3F4F5D" transform="translate(0,0)"/>
<path d="" fill="#37485D" transform="translate(0,0)"/>
<path d="" fill="#2E4158" transform="translate(0,0)"/>
<path d="" fill="#31445B" transform="translate(0,0)"/>
<path d="" fill="#3A4B5E" transform="translate(0,0)"/>
<path d="" fill="#39485C" transform="translate(0,0)"/>
<path d="" fill="#3E4D5F" transform="translate(0,0)"/>
<path d="" fill="#2D4356" transform="translate(0,0)"/>
<path d="" fill="#3B4D5D" transform="translate(0,0)"/>
<path d="" fill="#32485B" transform="translate(0,0)"/>
<path d="" fill="#33475A" transform="translate(0,0)"/>
<path d="" fill="#304258" transform="translate(0,0)"/>
<path d="" fill="#304456" transform="translate(0,0)"/>
<path d="" fill="#30465C" transform="translate(0,0)"/>
<path d="" fill="#314458" transform="translate(0,0)"/>
<path d="" fill="#38475B" transform="translate(0,0)"/>
<path d="" fill="#3B4C5D" transform="translate(0,0)"/>
<path d="" fill="#3E4E5F" transform="translate(0,0)"/>
<path d="" fill="#3D4D5B" transform="translate(0,0)"/>
<path d="" fill="#36475B" transform="translate(0,0)"/>
<path d="" fill="#3F4D5F" transform="translate(0,0)"/>
<path d="" fill="#34465C" transform="translate(0,0)"/>
<path d="" fill="#374759" transform="translate(0,0)"/>
<path d="" fill="#30465A" transform="translate(0,0)"/>
<path d="" fill="#334358" transform="translate(0,0)"/>
<path d="" fill="#304357" transform="translate(0,0)"/>
<path d="" fill="#364556" transform="translate(0,0)"/>
<path d="" fill="#34465C" transform="translate(0,0)"/>
<path d="" fill="#2E4659" transform="translate(0,0)"/>
<path d="" fill="#2F4358" transform="translate(0,0)"/>
<path d="" fill="#2F4155" transform="translate(0,0)"/>
<path d="" fill="#324458" transform="translate(0,0)"/>
<path d="" fill="#334155" transform="translate(0,0)"/>
<path d="" fill="#2D4256" transform="translate(0,0)"/>
<path d="" fill="#2B3F55" transform="translate(0,0)"/>
<path d="" fill="#344A5E" transform="translate(0,0)"/>
<path d="" fill="#374A5E" transform="translate(0,0)"/>
<path d="" fill="#30445B" transform="translate(0,0)"/>
<path d="" fill="#35475B" transform="translate(0,0)"/>
<path d="" fill="#3A4C5E" transform="translate(0,0)"/>
<path d="" fill="#34485B" transform="translate(0,0)"/>
<path d="" fill="#33485C" transform="translate(0,0)"/>
<path d="" fill="#2D4057" transform="translate(0,0)"/>
<path d="" fill="#324556" transform="translate(0,0)"/>
<path d="" fill="#334658" transform="translate(0,0)"/>
<path d="" fill="#304458" transform="translate(0,0)"/>
<path d="" fill="#31445A" transform="translate(0,0)"/>
<path d="" fill="#3B4C5E" transform="translate(0,0)"/>
<path d="" fill="#36475C" transform="translate(0,0)"/>
<path d="" fill="#2E4259" transform="translate(0,0)"/>
<path d="" fill="#2B4055" transform="translate(0,0)"/>
<path d="" fill="#31445A" transform="translate(0,0)"/>
<path d="" fill="#324659" transform="translate(0,0)"/>
<path d="" fill="#304156" transform="translate(0,0)"/>
<path d="" fill="#35475C" transform="translate(0,0)"/>
<path d="" fill="#314358" transform="translate(0,0)"/>
<path d="" fill="#34455A" transform="translate(0,0)"/>
<path d="" fill="#384A5C" transform="translate(0,0)"/>
<path d="" fill="#2C3F56" transform="translate(0,0)"/>
<path d="" fill="#32445C" transform="translate(0,0)"/>
<path d="" fill="#2C3F58" transform="translate(0,0)"/>
<path d="" fill="#304359" transform="translate(0,0)"/>
<path d="" fill="#2E4156" transform="translate(0,0)"/>
<path d="" fill="#2E4158" transform="translate(0,0)"/>
<path d="" fill="#374559" transform="translate(0,0)"/>
<path d="" fill="#2D4257" transform="translate(0,0)"/>
<path d="" fill="#2F455C" transform="translate(0,0)"/>
<path d="" fill="#2C4156" transform="translate(0,0)"/>
<path d="" fill="#394B5D" transform="translate(0,0)"/>
<path d="" fill="#2E4156" transform="translate(0,0)"/>
<path d="" fill="#31465A" transform="translate(0,0)"/>
<path d="" fill="#30445B" transform="translate(0,0)"/>
<path d="" fill="#3C4E5E" transform="translate(0,0)"/>
<path d="" fill="#2E4157" transform="translate(0,0)"/>
<path d="" fill="#334454" transform="translate(0,0)"/>
<path d="" fill="#3C4D5F" transform="translate(0,0)"/>
<path d="" fill="#31445C" transform="translate(0,0)"/>
<path d="" fill="#384A5F" transform="translate(0,0)"/>
<path d="" fill="#304758" transform="translate(0,0)"/>
<path d="" fill="#2F465A" transform="translate(0,0)"/>
<path d="" fill="#384A5E" transform="translate(0,0)"/>
<path d="" fill="#30445D" transform="translate(0,0)"/>
<path d="" fill="#31465D" transform="translate(0,0)"/>
<path d="" fill="#34485C" transform="translate(0,0)"/>
<path d="" fill="#33475A" transform="translate(0,0)"/>
<path d="" fill="#334559" transform="translate(0,0)"/>
<path d="" fill="#2E435A" transform="translate(0,0)"/>
<path d="" fill="#2C4057" transform="translate(0,0)"/>
<path d="" fill="#30455B" transform="translate(0,0)"/>
<path d="" fill="#33445A" transform="translate(0,0)"/>
<path d="" fill="#2C4256" transform="translate(0,0)"/>
<path d="" fill="#2D4056" transform="translate(0,0)"/>
<path d="" fill="#314459" transform="translate(0,0)"/>
<path d="" fill="#2C3F57" transform="translate(0,0)"/>
<path d="" fill="#324659" transform="translate(0,0)"/>
<path d="" fill="#32465B" transform="translate(0,0)"/>
<path d="" fill="#304459" transform="translate(0,0)"/>
<path d="" fill="#3E4C5D" transform="translate(0,0)"/>
<path d="" fill="#3C4E5F" transform="translate(0,0)"/>
<path d="" fill="#3D4C5D" transform="translate(0,0)"/>
<path d="" fill="#33495D" transform="translate(0,0)"/>
<path d="" fill="#36485D" transform="translate(0,0)"/>
<path d="" fill="#2F4256" transform="translate(0,0)"/>
<path d="" fill="#2C4056" transform="translate(0,0)"/>
<path d="" fill="#31435A" transform="translate(0,0)"/>
<path d="" fill="#2E4258" transform="translate(0,0)"/>
<path d="" fill="#2E405A" transform="translate(0,0)"/>
<path d="" fill="#2D4156" transform="translate(0,0)"/>
<path d="" fill="#2F4359" transform="translate(0,0)"/>
<path d="" fill="#324559" transform="translate(0,0)"/>
<path d="" fill="#32465A" transform="translate(0,0)"/>
<path d="" fill="#2E435A" transform="translate(0,0)"/>
<path d="" fill="#33455C" transform="translate(0,0)"/>
<path d="" fill="#304257" transform="translate(0,0)"/>
<path d="" fill="#34455A" transform="translate(0,0)"/>
<path d="" fill="#39485A" transform="translate(0,0)"/>
<path d="" fill="#334559" transform="translate(0,0)"/>
<path d="" fill="#45505F" transform="translate(0,0)"/>
<path d="" fill="#2E425A" transform="translate(0,0)"/>
<path d="" fill="#2E4357" transform="translate(0,0)"/>
<path d="" fill="#2F455B" transform="translate(0,0)"/>
<path d="" fill="#2D4157" transform="translate(0,0)"/>
<path d="" fill="#2D4055" transform="translate(0,0)"/>
<path d="" fill="#31455A" transform="translate(0,0)"/>
<path d="" fill="#2D4458" transform="translate(0,0)"/>
<path d="" fill="#30465D" transform="translate(0,0)"/>
<path d="" fill="#2F445A" transform="translate(0,0)"/>
<path d="" fill="#35485D" transform="translate(0,0)"/>
<path d="" fill="#30455D" transform="translate(0,0)"/>
<path d="" fill="#384B5E" transform="translate(0,0)"/>
<path d="" fill="#374B5C" transform="translate(0,0)"/>
<path d="" fill="#35475D" transform="translate(0,0)"/>
<path d="" fill="#334A5D" transform="translate(0,0)"/>
<path d="" fill="#2E4157" transform="translate(0,0)"/>
<path d="" fill="#2F4459" transform="translate(0,0)"/>
<path d="" fill="#36495A" transform="translate(0,0)"/>
<path d="" fill="#314258" transform="translate(0,0)"/>
<path d="" fill="#37485B" transform="translate(0,0)"/>
<path d="" fill="#35485B" transform="translate(0,0)"/>
<path d="" fill="#2F4258" transform="translate(0,0)"/>
<path d="" fill="#31455B" transform="translate(0,0)"/>
<path d="" fill="#37455C" transform="translate(0,0)"/>
<path d="" fill="#465563" transform="translate(0,0)"/>
<path d="" fill="#34465C" transform="translate(0,0)"/>
<path d="" fill="#314358" transform="translate(0,0)"/>
<path d="" fill="#394C5E" transform="translate(0,0)"/>
<path d="" fill="#32445C" transform="translate(0,0)"/>
<path d="" fill="#384D5D" transform="translate(0,0)"/>
<path d="" fill="#384A5E" transform="translate(0,0)"/>
<path d="" fill="#3A4C5E" transform="translate(0,0)"/>
<path d="" fill="#394D62" transform="translate(0,0)"/>
<path d="" fill="#38495E" transform="translate(0,0)"/>
<path d="" fill="#3C4E5F" transform="translate(0,0)"/>
<path d="" fill="#33465D" transform="translate(0,0)"/>
<path d="" fill="#36495D" transform="translate(0,0)"/>
<path d="" fill="#364C61" transform="translate(0,0)"/>
<path d="" fill="#3D4E5F" transform="translate(0,0)"/>
<path d="" fill="#3C4F62" transform="translate(0,0)"/>
<path d="" fill="#394B5C" transform="translate(0,0)"/>
<path d="" fill="#445364" transform="translate(0,0)"/>
<path d="" fill="#304459" transform="translate(0,0)"/>
<path d="" fill="#33465B" transform="translate(0,0)"/>
<path d="" fill="#32465B" transform="translate(0,0)"/>
<path d="" fill="#3D4F62" transform="translate(0,0)"/>
<path d="" fill="#3C4D60" transform="translate(0,0)"/>
<path d="" fill="#3A4C5F" transform="translate(0,0)"/>
<path d="" fill="#3D5062" transform="translate(0,0)"/>
<path d="" fill="#3C4F62" transform="translate(0,0)"/>
<path d="" fill="#3E5061" transform="translate(0,0)"/>
<path d="" fill="#31455D" transform="translate(0,0)"/>
<path d="" fill="#3D4E60" transform="translate(0,0)"/>
<path d="" fill="#35495D" transform="translate(0,0)"/>
<path d="" fill="#33475B" transform="translate(0,0)"/>
<path d="" fill="#36485B" transform="translate(0,0)"/>
<path d="" fill="#30435A" transform="translate(0,0)"/>
<path d="" fill="#33475E" transform="translate(0,0)"/>
<path d="" fill="#3B4E5F" transform="translate(0,0)"/>
<path d="" fill="#36475C" transform="translate(0,0)"/>
<path d="" fill="#31425B" transform="translate(0,0)"/>
<path d="" fill="#34455C" transform="translate(0,0)"/>
<path d="" fill="#33465C" transform="translate(0,0)"/>
<path d="" fill="#3E4F61" transform="translate(0,0)"/>
<path d="" fill="#3E4F61" transform="translate(0,0)"/>
<path d="" fill="#34465C" transform="translate(0,0)"/>
<path d="" fill="#35475E" transform="translate(0,0)"/>
<path d="" fill="#31475C" transform="translate(0,0)"/>
<path d="" fill="#3B4E62" transform="translate(0,0)"/>
<path d="" fill="#384C60" transform="translate(0,0)"/>
<path d="" fill="#3F515E" transform="translate(0,0)"/>
<path d="" fill="#2F4559" transform="translate(0,0)"/>
<path d="" fill="#3C5063" transform="translate(0,0)"/>
<path d="" fill="#33495C" transform="translate(0,0)"/>
<path d="" fill="#354C60" transform="translate(0,0)"/>
<path d="" fill="#314357" transform="translate(0,0)"/>
<path d="" fill="#33475A" transform="translate(0,0)"/>
<path d="" fill="#324358" transform="translate(0,0)"/>
<path d="" fill="#31475B" transform="translate(0,0)"/>
<path d="" fill="#32465A" transform="translate(0,0)"/>
<path d="" fill="#34485D" transform="translate(0,0)"/>
<path d="" fill="#3D5066" transform="translate(0,0)"/>
<path d="" fill="#435365" transform="translate(0,0)"/>
<path d="" fill="#415364" transform="translate(0,0)"/>
<path d="" fill="#445666" transform="translate(0,0)"/>
<path d="" fill="#34465A" transform="translate(0,0)"/>
<path d="" fill="#394B5B" transform="translate(0,0)"/>
<path d="" fill="#3B4C5B" transform="translate(0,0)"/>
<path d="" fill="#445666" transform="translate(0,0)"/>
<path d="" fill="#435266" transform="translate(0,0)"/>
<path d="" fill="#3C5161" transform="translate(0,0)"/>
<path d="" fill="#32475A" transform="translate(0,0)"/>
<path d="" fill="#30445B" transform="translate(0,0)"/>
<path d="" fill="#2E445A" transform="translate(0,0)"/>
<path d="" fill="#31455A" transform="translate(0,0)"/>
<path d="" fill="#314759" transform="translate(0,0)"/>
<path d="" fill="#304559" transform="translate(0,0)"/>
<path d="" fill="#33495E" transform="translate(0,0)"/>
<path d="" fill="#2E445A" transform="translate(0,0)"/>
<path d="" fill="#32455C" transform="translate(0,0)"/>
<path d="" fill="#304358" transform="translate(0,0)"/>
<path d="" fill="#3A4C5B" transform="translate(0,0)"/>
<path d="" fill="#3C4B5F" transform="translate(0,0)"/>
<path d="" fill="#31455C" transform="translate(0,0)"/>
<path d="" fill="#3D4B5D" transform="translate(0,0)"/>
<path d="" fill="#32465D" transform="translate(0,0)"/>
<path d="" fill="#33465A" transform="translate(0,0)"/>
<path d="" fill="#35465C" transform="translate(0,0)"/>
<path d="" fill="#2F455A" transform="translate(0,0)"/>
<path d="" fill="#2E4259" transform="translate(0,0)"/>
<path d="" fill="#304358" transform="translate(0,0)"/>
<path d="" fill="#304459" transform="translate(0,0)"/>
<path d="" fill="#2C4257" transform="translate(0,0)"/>
<path d="" fill="#31445A" transform="translate(0,0)"/>
<path d="" fill="#405362" transform="translate(0,0)"/>
<path d="" fill="#414F5F" transform="translate(0,0)"/>
<path d="" fill="#40505F" transform="translate(0,0)"/>
<path d="" fill="#405363" transform="translate(0,0)"/>
<path d="" fill="#3C4E61" transform="translate(0,0)"/>
<path d="" fill="#384B60" transform="translate(0,0)"/>
<path d="" fill="#3C4F62" transform="translate(0,0)"/>
<path d="" fill="#3D4D60" transform="translate(0,0)"/>
<path d="" fill="#3D5062" transform="translate(0,0)"/>
<path d="" fill="#3D5263" transform="translate(0,0)"/>
<path d="" fill="#3E5364" transform="translate(0,0)"/>
<path d="" fill="#3D4E5D" transform="translate(0,0)"/>
<path d="" fill="#3E5265" transform="translate(0,0)"/>
<path d="" fill="#405364" transform="translate(0,0)"/>
<path d="" fill="#425463" transform="translate(0,0)"/>
<path d="" fill="#455865" transform="translate(0,0)"/>
<path d="" fill="#455564" transform="translate(0,0)"/>
</svg>
